<svg version="1.1" id="Layer_1" xmlns="http://www.w3.org/2000/svg" xmlns:xlink="http://www.w3.org/1999/xlink" x="0px" y="0px"
	 width="100%" viewBox="0 0 500 500" enable-background="new 0 0 500 500" xml:space="preserve">
<path fill="#000000" opacity="1.000000" stroke="none" 
	d="
M232.000000,501.000000 
	C154.666687,501.000000 77.833366,501.000000 1.000041,501.000000 
	C1.000027,334.333405 1.000027,167.666779 1.000014,1.000131 
	C167.666565,1.000087 334.333130,1.000087 500.999756,1.000044 
	C500.999847,167.666519 500.999847,334.333038 500.999939,500.999786 
	C411.500000,501.000000 322.000000,501.000000 232.000000,501.000000 
M85.347321,224.985413 
	C84.866096,225.301315 84.384865,225.617218 83.977539,225.956909 
	C83.977539,225.956909 83.960732,225.881119 83.205879,225.962753 
	C81.443253,226.618423 79.680626,227.274078 78.004707,227.974655 
	C78.004707,227.974655 77.936836,227.904297 77.190521,227.993942 
	C75.433739,228.634705 73.676956,229.275467 71.999451,229.949112 
	C71.999451,229.949112 71.920403,229.901840 71.152489,229.964905 
	C68.728279,230.963547 66.304062,231.962189 63.433998,233.007889 
	C63.433998,233.007889 63.002293,233.128845 62.381840,232.994812 
	C61.895168,233.308609 61.408497,233.622406 60.985844,233.979233 
	C60.985844,233.979233 60.972088,233.903336 60.344929,233.973373 
	C59.865833,234.296539 59.386742,234.619720 58.979233,234.961319 
	C58.979233,234.961319 58.980236,234.887405 58.233044,234.967590 
	C57.127747,235.289566 56.022449,235.611557 54.991215,235.967682 
	C54.991215,235.967682 54.959282,235.892639 54.239239,235.950867 
	C53.165325,236.348557 52.091412,236.746231 50.275227,237.267456 
	C48.515842,238.415405 45.483696,239.316040 45.204716,240.751678 
	C43.461895,249.720245 42.380642,258.815552 40.981667,267.853607 
	C40.352253,271.919952 41.943737,274.507324 45.704548,275.954376 
	C47.368027,276.594452 48.956306,277.433472 50.628067,278.047974 
	C63.372467,282.732391 76.129066,287.383606 89.187134,292.703094 
	C93.458977,294.414215 97.730820,296.125366 102.457779,297.994232 
	C102.457779,297.994232 102.925003,298.111359 103.244164,298.719666 
	C104.495331,299.088684 105.746506,299.457703 107.461182,299.984589 
	C107.461182,299.984589 107.935417,300.106506 108.200493,300.679749 
	C109.133675,301.068207 110.066864,301.456665 111.470451,301.986115 
	C111.470451,301.986115 111.942902,302.120117 112.308746,302.770264 
	C116.874878,304.459503 121.441010,306.148743 126.735840,307.981323 
	C130.101044,309.737823 131.323181,308.547943 130.953705,304.495148 
	C130.924347,304.323822 130.895004,304.152496 131.035568,303.169403 
	C132.301636,293.772614 133.567719,284.375824 134.961456,274.375000 
	C134.640686,273.977966 134.319931,273.580933 133.527603,273.022705 
	C133.527603,273.022705 133.044968,272.898529 132.686417,272.258301 
	C128.832947,270.822723 124.979485,269.387146 120.856895,267.367981 
	C120.248329,267.300629 119.639763,267.233276 118.403862,267.031311 
	C117.976974,267.005188 117.550095,266.979065 116.818741,266.327911 
	C115.913788,266.199371 115.008835,266.070801 113.766846,265.314087 
	C112.213463,264.864227 110.660080,264.414368 108.931023,263.471588 
	C108.628670,263.373993 108.326317,263.276398 107.392433,263.045746 
	C106.963127,263.017853 106.533813,262.989929 105.838676,262.383820 
	C105.235252,262.217468 104.631836,262.051086 104.020576,261.959717 
	C104.020576,261.959717 104.091980,261.935516 103.722107,261.280121 
	C100.478256,260.237854 97.234406,259.195587 93.574989,258.011292 
	C93.574989,258.011292 93.141792,257.938995 93.102211,257.249207 
	C94.086197,256.545074 95.070190,255.840958 96.517998,254.994736 
	C96.517998,254.994736 96.976990,254.837784 97.758942,254.975723 
	C98.402908,254.883011 99.079025,254.886444 99.686104,254.683441 
	C112.308426,250.462326 124.939850,246.266403 137.508118,241.889343 
	C138.559753,241.523102 139.743851,239.986465 139.903473,238.857452 
	C141.071426,230.596634 141.992386,222.300934 142.993378,214.016479 
	C143.339783,211.149429 143.692169,208.283112 144.208069,204.053696 
	C139.476471,205.648224 135.726685,206.911896 131.463028,208.125381 
	C131.273895,208.401810 131.084747,208.678238 130.973282,208.963989 
	C130.973282,208.963989 130.974915,208.885788 130.279831,208.959244 
	C129.496536,209.283676 128.713257,209.608124 128.007462,209.983948 
	C128.007462,209.983948 127.939293,209.918579 127.184387,209.973816 
	C125.424393,210.626617 123.664398,211.279434 121.981369,211.968079 
	C121.981369,211.968079 121.947800,211.890106 121.477463,211.999756 
	C121.477463,211.999756 121.021606,212.159241 120.277527,212.041626 
	C115.847221,213.739426 111.416916,215.437210 106.369431,216.997177 
	C105.885139,217.311279 105.400841,217.625397 104.984467,217.973297 
	C104.984467,217.973297 104.970314,217.898758 104.347015,217.982529 
	C103.871201,218.305176 103.395386,218.627808 102.988976,218.978683 
	C102.988976,218.978683 102.963425,218.908264 102.253914,218.989426 
	C101.178116,219.383011 100.102325,219.776596 98.362724,220.194366 
	C97.567627,220.522125 96.772522,220.849884 95.464027,221.127563 
	C95.279343,221.405594 95.094650,221.683624 94.981705,221.972336 
	C94.981705,221.972336 94.979057,221.899872 94.191032,221.968994 
	C92.099442,222.611465 90.007858,223.253937 87.937630,223.982285 
	C87.937630,223.982285 87.959198,223.896469 87.335136,223.968597 
	C86.862984,224.292740 86.390831,224.616867 85.985374,224.974426 
	C85.985374,224.974426 85.974113,224.900665 85.347321,224.985413 
M256.030273,200.978439 
	C256.030273,200.978439 256.112854,200.972961 256.015900,200.351959 
	C255.703964,199.873611 255.392044,199.395264 255.062866,198.999557 
	C255.062866,198.999557 255.097961,198.917465 255.070023,198.177139 
	C253.728088,197.408752 252.386139,196.640366 250.745087,195.271118 
	C249.202499,194.502380 247.659912,193.733658 245.925629,192.476212 
	C245.621445,192.378632 245.317245,192.281036 244.397812,192.039948 
	C243.977524,192.012466 243.557236,191.985001 242.944778,191.455399 
	C242.633072,191.355240 242.321365,191.255066 241.580078,191.018967 
	C241.580078,191.018967 241.134613,190.951157 240.816971,190.308090 
	C239.886139,190.261581 238.955322,190.215073 237.590286,190.020248 
	C237.590286,190.020248 237.137054,189.948654 236.771561,189.275864 
	C235.513565,189.239594 234.255585,189.203323 232.579407,189.021683 
	C232.579407,189.021683 232.142242,188.951706 231.738632,188.240662 
	C229.836502,188.219055 227.934372,188.197449 225.593155,188.026047 
	C225.593155,188.026047 225.132172,187.973602 224.686584,187.205063 
	C206.935989,187.136383 189.185150,187.026154 171.435501,187.126419 
	C170.582443,187.131241 169.739853,188.992523 168.197708,190.415756 
	C167.854599,193.942627 167.511475,197.469482 167.026367,201.917984 
	C166.668121,207.898300 166.309891,213.878616 165.254272,220.242203 
	C163.560837,233.160446 161.867416,246.078705 160.055038,259.506439 
	C160.091934,259.676849 160.128845,259.847290 159.770554,260.745148 
	C158.904892,266.829468 158.039230,272.913788 157.020905,279.830383 
	C155.733292,290.561096 154.445694,301.291840 152.985657,312.830048 
	C152.375092,316.828369 151.764542,320.826660 151.268066,325.711914 
	C163.403198,325.809998 175.538284,325.919128 187.673599,325.956573 
	C188.067780,325.957794 188.464218,325.227112 189.301651,324.158356 
	C191.299561,309.516296 193.297485,294.874237 195.326797,280.002014 
	C202.279083,280.002014 208.931778,280.338135 215.538788,279.931641 
	C229.088013,279.098053 241.486542,275.293823 251.303101,264.156769 
	C259.022278,254.451965 262.290009,243.199554 262.968933,230.333130 
	C262.930389,229.883163 262.891846,229.433197 263.023743,228.169556 
	C262.852753,223.114731 263.036713,218.012604 262.371704,213.023621 
	C261.999084,210.228302 260.220367,207.620438 259.010345,204.968460 
	C259.010345,204.968460 259.086121,204.978012 259.024475,204.463120 
	C258.701843,203.965439 258.379181,203.467758 257.927673,202.685165 
	C257.794922,202.342484 257.563049,202.152206 256.993683,201.558426 
	C256.672821,201.337509 256.351959,201.116608 256.030273,200.978439 
M401.925018,216.456482 
	C401.625549,216.358353 401.326050,216.260223 400.382874,215.860825 
	C399.295807,215.557434 398.208771,215.254044 396.924194,214.474823 
	C396.625641,214.374268 396.327087,214.273712 395.425842,213.901169 
	C394.333405,213.217636 393.240936,212.534088 391.794281,211.182999 
	C390.543304,211.182648 389.292328,211.182297 387.590973,211.029755 
	C387.590973,211.029755 387.121094,210.957245 386.950470,210.452393 
	C386.642883,210.350769 386.335266,210.249146 385.402588,209.880569 
	C384.601349,209.643723 383.800140,209.406876 382.335449,208.835907 
	C379.120087,207.433578 375.904755,206.031265 372.129669,204.384827 
	C370.354858,216.354813 368.619324,227.608673 367.143799,238.896515 
	C367.029968,239.767410 368.554108,241.347015 369.645203,241.791779 
	C373.542603,243.380463 377.602020,244.565643 381.563019,246.005554 
	C390.915710,249.405426 400.247070,252.863953 410.367310,256.585693 
	C399.699677,260.214844 389.812134,263.578583 379.995056,266.985657 
	C379.995056,266.985657 379.954865,266.913391 379.482758,267.009125 
	C379.482758,267.009125 379.027222,267.165619 378.369232,267.192963 
	C377.578827,267.514618 376.788452,267.836243 375.247101,268.045166 
	C372.532562,269.033844 369.638580,269.706177 367.160767,271.112061 
	C365.207367,272.220398 363.004639,273.950531 362.280487,275.910034 
	C361.250549,278.696686 361.474457,281.946777 361.042969,285.509827 
	C361.072815,285.682159 361.102692,285.854523 360.979095,286.839020 
	C360.710297,289.558899 360.441498,292.278778 360.032440,295.670502 
	C360.071442,296.124512 360.110413,296.578552 359.974670,297.833435 
	C359.348541,301.764801 358.722443,305.696167 357.947510,310.561829 
	C361.935242,308.617950 364.496277,307.369507 367.824860,306.014587 
	C371.647278,304.767365 375.500488,303.606506 379.286591,302.257324 
	C392.567383,297.524719 405.824158,292.724609 419.091858,287.955261 
	C430.203033,283.961090 441.362946,280.094330 452.384003,275.865540 
	C454.220673,275.160828 456.488678,273.071320 456.789154,271.318573 
	C457.920105,264.721313 458.292999,257.995758 459.018005,251.325714 
	C459.154572,250.069611 459.396790,248.746521 459.943787,247.627029 
	C462.351318,242.699585 461.516205,240.465714 455.958832,237.443100 
	C455.647003,237.342148 455.335144,237.241196 454.562439,237.019684 
	C454.562439,237.019684 454.089050,236.966263 453.918701,236.460403 
	C453.623291,236.281174 453.327911,236.101959 452.809784,235.377655 
	C452.193695,235.555725 451.577606,235.733795 450.272186,235.753799 
	C448.532928,235.126480 446.793671,234.499176 444.888550,233.396332 
	C444.592896,233.318985 444.297211,233.241638 443.374115,233.023514 
	C442.621948,232.669296 441.869781,232.315094 440.937683,231.467743 
	C440.634552,231.366348 440.331390,231.264969 439.586121,231.017914 
	C439.586121,231.017914 439.128143,230.934555 438.817993,230.293289 
	C437.891785,230.255798 436.965576,230.218323 435.368073,229.863098 
	C431.283936,228.228973 427.199799,226.594849 422.939697,224.465179 
	C422.636169,224.364197 422.332611,224.263199 421.580536,224.020966 
	C421.580536,224.020966 421.116089,223.947418 420.794281,223.318436 
	C419.875061,223.267929 418.955872,223.217438 417.433319,222.909729 
	C416.661072,222.591949 415.888855,222.274185 414.850281,221.376404 
	C414.245392,221.310318 413.640472,221.244232 412.400787,220.892685 
	C410.977020,220.244202 409.553223,219.595718 407.950348,218.447693 
	C407.643494,218.348068 407.336639,218.248444 406.396515,218.028229 
	C405.967407,218.005325 405.538300,217.982437 404.783966,217.334595 
	C403.865479,217.188110 402.946991,217.041626 402.021606,216.968613 
	C402.021606,216.968613 402.091949,216.946320 401.925018,216.456482 
M322.014130,178.754379 
	C321.980255,179.479111 321.946381,180.203857 321.973419,181.005585 
	C321.973419,181.005585 321.924255,180.925522 321.281708,181.295990 
	C316.496735,194.030640 311.643585,206.740219 306.944397,219.506439 
	C301.348175,234.709717 295.956757,249.988525 290.341797,265.184784 
	C284.948669,279.780548 279.361664,294.304565 273.901062,308.875580 
	C270.266541,318.573914 266.704315,328.299347 262.944214,338.724060 
	C262.024506,341.089478 261.104797,343.454895 260.301178,346.720825 
	C272.065796,346.805420 283.830353,346.902039 295.595123,346.932770 
	C296.090332,346.934082 296.587097,346.322693 297.757446,345.652802 
	C298.042908,344.383514 298.189392,343.063049 298.634796,341.852600 
	C304.831146,325.012451 311.058533,308.183716 317.298126,291.359467 
	C325.953308,268.021820 334.604828,244.682846 343.297485,221.359161 
	C348.436707,207.569824 353.652130,193.808914 359.002899,179.518906 
	C359.054932,179.345383 359.106934,179.171860 359.610443,178.873428 
	C359.456970,178.583038 359.303467,178.292664 358.673553,177.250519 
	C346.943512,177.170212 335.213501,177.078568 323.483337,177.053680 
	C323.043488,177.052734 322.602264,177.700256 322.014130,178.754379 
z"/>
<path fill="#9BD73F" opacity="1.000000" stroke="none" 
	d="
M260.185120,345.820312 
	C261.104797,343.454895 262.024506,341.089478 263.399597,338.345703 
	C264.606689,337.080566 265.629028,336.307953 266.060211,335.285919 
	C267.450928,331.989716 268.266357,328.395599 270.030060,325.334961 
	C270.926910,323.778595 273.379272,323.118622 275.083740,322.294373 
	C275.039001,322.535309 274.869781,322.995239 274.515564,323.063660 
	C273.480225,325.772369 272.799133,328.412598 272.068512,331.427704 
	C271.075562,334.209045 270.132141,336.615540 268.934143,339.161499 
	C268.874725,339.856445 269.069946,340.411835 269.449158,340.964172 
	C269.633148,340.961060 269.970062,341.109192 270.299622,341.366089 
	C278.071991,341.369965 285.514862,341.116943 292.984619,340.488953 
	C297.097504,328.839722 301.076385,317.525177 305.296478,306.301361 
	C310.658722,292.039825 316.309570,277.886749 321.667786,263.623688 
	C329.412659,243.007339 337.079407,222.360840 344.622070,201.669815 
	C346.997681,195.153152 348.867737,188.452209 350.634827,181.598053 
	C346.208374,181.239700 342.110657,180.931519 338.025848,181.053802 
	C334.354156,181.163727 330.696625,181.746292 327.004974,182.345261 
	C326.977081,182.570129 326.831116,182.999161 326.501831,183.084106 
	C325.135406,183.755646 324.098297,184.342255 322.574097,185.204346 
	C322.295532,183.370255 322.109894,182.147888 321.924255,180.925522 
	C321.924255,180.925522 321.973419,181.005585 322.281372,180.924133 
	C323.060974,179.920303 323.532684,178.997925 324.471954,178.046494 
	C336.343018,178.012390 347.746490,178.007339 359.149963,178.002289 
	C359.303467,178.292664 359.456970,178.583038 359.210510,179.013214 
	C358.713196,179.231781 358.520752,179.340164 358.534485,179.384354 
	C358.604889,179.610397 358.728363,179.819916 358.833282,180.035217 
	C353.652130,193.808914 348.436707,207.569824 343.297485,221.359161 
	C334.604828,244.682846 325.953308,268.021820 317.298126,291.359467 
	C311.058533,308.183716 304.831146,325.012451 298.634796,341.852600 
	C298.189392,343.063049 298.042908,344.383514 296.945923,345.820221 
	C284.151306,345.931854 272.168213,345.876099 260.185120,345.820312 
z"/>
<path fill="#9AD73C" opacity="1.000000" stroke="none" 
	d="
M423.115662,224.960724 
	C427.199799,226.594849 431.283936,228.228973 435.955994,230.233154 
	C437.405334,230.713654 438.266724,230.824097 439.128143,230.934540 
	C439.128143,230.934555 439.586121,231.017914 439.949707,231.271942 
	C440.543060,231.741837 440.811188,231.886810 441.117615,231.960892 
	C441.869781,232.315094 442.621948,232.669296 443.708557,233.301849 
	C444.380127,233.677414 444.717255,233.774628 445.054413,233.871857 
	C446.793671,234.499176 448.532928,235.126480 450.799561,236.074280 
	C451.884521,236.596085 452.442108,236.797424 453.272217,236.996155 
	C453.726166,236.984467 453.907623,236.975372 454.089050,236.966263 
	C454.089050,236.966263 454.562439,237.019684 454.937561,237.265579 
	C455.546661,237.732727 455.820465,237.880081 456.134033,237.953537 
	C461.516205,240.465714 462.351318,242.699585 459.943787,247.627029 
	C459.396790,248.746521 459.154572,250.069611 459.018005,251.325714 
	C458.292999,257.995758 457.920105,264.721313 456.789154,271.318573 
	C456.488678,273.071320 454.220673,275.160828 452.384003,275.865540 
	C441.362946,280.094330 430.203033,283.961090 419.091858,287.955261 
	C405.824158,292.724609 392.567383,297.524719 379.286591,302.257324 
	C375.500488,303.606506 371.647278,304.767365 367.202332,305.820282 
	C362.050568,306.638245 360.325592,304.814117 360.936493,300.280975 
	C361.075134,299.252197 360.432434,298.118164 360.149414,297.032562 
	C360.110413,296.578552 360.071442,296.124512 360.457275,295.213379 
	C360.965607,291.846436 361.049103,288.936646 361.132599,286.026855 
	C361.102692,285.854523 361.072815,285.682159 361.449341,285.151703 
	C362.567657,282.871948 363.987518,280.898315 363.850983,279.039001 
	C363.518707,274.514679 366.066406,273.170410 369.644165,271.949463 
	C371.927521,271.170258 373.891083,269.454010 375.998047,268.157898 
	C376.788452,267.836243 377.578827,267.514618 378.817993,267.293121 
	C379.632355,267.473663 379.861725,267.313690 379.954865,266.913391 
	C379.954865,266.913391 379.995056,266.985657 380.329346,266.981018 
	C381.934967,267.488861 383.206299,268.001343 384.490173,268.518890 
	C382.281067,270.251984 380.640564,271.539001 378.649231,272.908173 
	C377.188446,273.281616 376.078461,273.572937 374.708221,273.641479 
	C371.500000,273.200500 368.332733,272.601593 368.051575,277.037384 
	C368.012268,276.993896 368.102600,277.070190 367.735382,277.138824 
	C367.199554,279.464081 367.030914,281.720703 366.904877,284.235718 
	C366.906067,284.663757 366.864685,284.833374 366.475464,285.117767 
	C366.127991,287.508209 366.128357,289.783905 366.080444,292.452698 
	C365.963715,293.897522 365.895294,294.949219 365.495544,296.099884 
	C365.169525,297.778900 365.174805,299.358948 365.139465,300.933105 
	C365.098877,300.927216 365.131989,300.852112 365.155029,301.181641 
	C365.801941,301.819824 366.608459,302.550446 367.021332,302.371735 
	C371.041412,300.631409 374.995636,298.738983 378.971741,296.926727 
	C378.974884,296.963593 378.902039,296.950806 379.116119,296.869263 
	C379.605682,296.637238 379.821198,296.425598 380.318237,295.990479 
	C386.282318,293.817657 391.909485,291.819824 397.526672,289.794434 
	C414.928131,283.519989 432.332672,277.253845 449.705994,270.902313 
	C450.637604,270.561707 451.515045,269.599548 452.043732,268.705597 
	C456.058533,261.916656 454.644470,254.314240 455.501587,246.894897 
	C456.161469,245.299622 456.486511,243.809525 456.811554,242.319427 
	C456.202057,242.501160 455.592529,242.682892 454.731262,242.900513 
	C454.293579,242.667755 454.107666,242.399078 453.889954,241.803406 
	C452.888428,241.354309 451.918762,241.232224 450.640594,241.058197 
	C449.852264,240.693848 449.372437,240.381409 449.113159,239.836273 
	C447.849457,239.083878 446.365173,238.564163 444.545349,237.878036 
	C442.139648,237.084137 440.069458,236.456650 437.917358,235.502930 
	C435.164856,233.308029 432.937775,230.149506 428.651062,232.061066 
	C427.887024,231.707230 427.418976,231.413101 426.890839,230.960693 
	C426.560913,230.823853 426.291046,230.845276 425.663971,230.920898 
	C424.196198,230.604340 423.085693,230.233566 421.836914,229.679352 
	C421.471649,229.277008 421.204041,229.134186 420.936096,229.053940 
	C420.976410,229.040390 420.938995,229.116745 420.798157,228.799042 
	C414.772705,225.986237 408.888123,223.491150 402.910370,220.641815 
	C398.859100,219.238113 394.901001,218.188660 390.705322,217.067352 
	C390.467804,216.995514 390.000671,216.827774 389.914795,216.499725 
	C388.082153,213.320877 382.465027,214.245544 382.998901,209.170013 
	C383.800140,209.406876 384.601349,209.643723 385.857025,210.198303 
	C386.541779,210.735641 386.811676,210.882721 387.121094,210.957245 
	C387.121094,210.957245 387.590973,211.029755 388.098755,211.324310 
	C389.787201,211.696106 390.967834,211.773331 392.148499,211.850555 
	C393.240936,212.534088 394.333405,213.217636 395.871094,214.215668 
	C396.547089,214.742584 396.815521,214.882751 397.121704,214.950638 
	C398.208771,215.254044 399.295807,215.557434 400.842896,216.190582 
	C401.526886,216.734695 401.789886,216.876694 402.091949,216.946320 
	C402.091949,216.946320 402.021606,216.968613 402.242065,217.198715 
	C403.344757,217.605728 404.226959,217.782639 405.109192,217.959534 
	C405.538300,217.982437 405.967407,218.005325 406.855804,218.272156 
	C407.546967,218.734512 407.818420,218.878220 408.129456,218.947235 
	C409.553223,219.595718 410.977020,220.244202 412.927612,221.233765 
	C414.008484,221.702026 414.562531,221.829224 415.116608,221.956421 
	C415.888855,222.274185 416.661072,222.591949 417.984619,223.252106 
	C419.395966,223.712143 420.256042,223.829773 421.116089,223.947418 
	C421.116089,223.947418 421.580536,224.020966 421.946655,224.273041 
	C422.541931,224.741241 422.809540,224.886444 423.115662,224.960724 
M424.315247,227.856415 
	C424.388245,227.812897 424.461243,227.769379 424.315247,227.856415 
z"/>
<path fill="#97D836" opacity="1.000000" stroke="none" 
	d="
M262.853302,228.983231 
	C262.891846,229.433197 262.930389,229.883163 262.553986,230.774475 
	C261.481384,232.854660 260.621460,234.443817 260.204315,236.141754 
	C258.985626,241.102417 258.190063,246.179779 256.737091,251.065201 
	C255.906204,253.859024 254.118103,256.368164 252.212036,260.072235 
	C251.514206,258.050171 251.094452,257.436279 251.250076,257.197601 
	C256.343445,249.386749 257.012512,240.266113 259.216095,231.550278 
	C261.664032,221.867935 258.234619,213.286880 255.640518,204.482010 
	C255.417160,203.723846 253.211472,203.549728 251.939667,203.090179 
	C251.952713,203.076035 251.930283,203.085236 251.896713,202.759018 
	C251.213486,201.975479 250.563828,201.518158 249.953949,201.034348 
	C249.993744,201.007843 249.934845,201.083191 249.945160,200.702942 
	C247.778473,195.235687 234.810547,190.820755 227.758453,192.902878 
	C227.334915,192.911942 227.166519,192.870712 226.866043,192.460999 
	C225.533691,191.727219 224.334976,191.049927 223.132965,191.044052 
	C208.190964,190.971115 193.248444,190.979599 178.306244,191.028305 
	C177.197662,191.031921 176.090607,191.504883 174.711670,191.840576 
	C174.253036,191.942902 174.065598,191.964294 173.578064,192.191925 
	C173.143784,194.930237 173.009567,197.462296 172.914459,200.248413 
	C172.912109,200.668747 172.870667,200.835037 172.466705,201.128204 
	C171.752151,204.214493 171.400101,207.173859 171.026428,210.560455 
	C170.279968,217.659988 169.555145,224.332306 168.483032,231.113541 
	C167.705948,235.475327 167.276108,239.728210 166.910339,244.356659 
	C166.925949,245.489594 166.877487,246.246933 166.477753,247.118195 
	C165.703705,252.150772 165.280930,257.069458 164.903381,262.242401 
	C164.908707,262.664093 164.868790,262.831573 164.481628,263.109070 
	C163.708664,267.474854 163.282944,271.730621 162.903229,276.243225 
	C162.908020,276.669067 162.866791,276.838074 162.475891,277.119934 
	C161.699966,281.482849 161.273697,285.732880 160.912170,290.433777 
	C159.917465,298.893158 158.858063,306.901672 157.597504,315.260376 
	C157.242584,317.215546 157.088821,318.820526 156.870850,321.095764 
	C164.413528,321.095764 171.489197,321.182800 178.560440,321.044342 
	C180.770905,321.001099 182.969452,320.349396 185.292480,319.886566 
	C185.588730,319.509491 185.536865,319.256500 185.188019,318.750305 
	C185.080185,318.269714 185.040207,318.076782 185.004059,317.665039 
	C185.007904,317.446198 185.135147,317.027374 185.386490,316.766479 
	C186.382111,314.137970 187.126389,311.770325 187.870667,309.402710 
	C188.423447,309.472534 188.976212,309.542358 189.528976,309.612183 
	C189.054398,313.226685 188.830246,316.900696 187.992401,320.428925 
	C187.612061,322.030548 186.015457,323.343384 184.506088,324.830994 
	C174.038910,324.850006 164.036209,324.825256 154.021271,324.359558 
	C153.725372,319.953278 153.441727,315.987915 153.158081,312.022552 
	C154.445694,301.291840 155.733292,290.561096 157.445312,279.309326 
	C158.635056,272.531464 159.400406,266.274597 160.165771,260.017761 
	C160.128845,259.847290 160.091934,259.676849 160.478745,259.122375 
	C161.640533,254.274643 162.526764,249.829422 163.084808,245.343384 
	C164.139999,236.860962 165.006653,228.355072 165.951645,219.858932 
	C166.309891,213.878616 166.668121,207.898300 167.446472,201.345383 
	C168.565933,197.158035 169.265289,193.543274 170.090790,189.549301 
	C172.069565,188.768204 173.920395,188.027435 175.775131,188.017502 
	C192.227081,187.929321 208.679733,187.970566 225.132172,187.973602 
	C225.132172,187.973602 225.593155,188.026047 226.122162,188.328629 
	C228.481522,188.738037 230.311874,188.844864 232.142242,188.951706 
	C232.142242,188.951706 232.579407,189.021683 232.861786,189.371704 
	C234.475143,189.797363 235.806091,189.873016 237.137054,189.948654 
	C237.137054,189.948654 237.590286,190.020248 238.059753,190.310394 
	C239.397690,190.717407 240.266159,190.834274 241.134613,190.951157 
	C241.134613,190.951157 241.580078,191.018967 241.942978,191.271378 
	C242.544952,191.741089 242.821976,191.885666 243.136948,191.957520 
	C243.557236,191.985001 243.977524,192.012466 244.851608,192.290619 
	C245.539566,192.752426 245.810211,192.893646 246.117325,192.964935 
	C247.659912,193.733658 249.202499,194.502380 250.942566,195.916183 
	C252.459335,197.346664 253.778641,198.132065 255.097961,198.917465 
	C255.097961,198.917465 255.062866,198.999557 255.081711,199.265625 
	C255.437988,200.012131 255.775421,200.492538 256.112854,200.972961 
	C256.112854,200.972961 256.030273,200.978439 256.171814,201.190903 
	C256.619568,201.640350 256.925781,201.877335 257.232025,202.114319 
	C257.563049,202.152206 257.794922,202.342484 258.027405,203.222519 
	C258.446838,204.165909 258.766479,204.571960 259.086121,204.978012 
	C259.086121,204.978012 259.010345,204.968460 259.030762,205.355988 
	C260.318542,213.490082 261.585907,221.236664 262.853302,228.983231 
z"/>
<path fill="#9BD741" opacity="1.000000" stroke="none" 
	d="
M321.602966,181.110748 
	C322.109894,182.147888 322.295532,183.370255 322.574097,185.204346 
	C324.098297,184.342255 325.135406,183.755646 326.567505,183.458649 
	C325.283997,188.284958 323.667114,192.845673 321.914001,197.353394 
	C318.337799,206.548737 314.545837,215.662598 311.106750,224.908234 
	C307.224915,235.344162 303.660156,245.897644 299.908661,256.382538 
	C295.279572,269.320312 290.722473,282.285919 285.900757,295.152008 
	C282.511871,304.194794 278.733124,313.091492 275.128479,322.053436 
	C273.379272,323.118622 270.926910,323.778595 270.030060,325.334961 
	C268.266357,328.395599 267.450928,331.989716 266.060211,335.285919 
	C265.629028,336.307953 264.606689,337.080566 263.482361,337.989990 
	C266.704315,328.299347 270.266541,318.573914 273.901062,308.875580 
	C279.361664,294.304565 284.948669,279.780548 290.341797,265.184784 
	C295.956757,249.988525 301.348175,234.709717 306.944397,219.506439 
	C311.643585,206.740219 316.496735,194.030640 321.602966,181.110748 
z"/>
<path fill="#9AD73D" opacity="1.000000" stroke="none" 
	d="
M382.667175,209.002960 
	C382.465027,214.245544 388.082153,213.320877 389.541199,216.562073 
	C385.389893,215.324875 381.526367,213.697296 376.970978,211.778290 
	C375.711121,220.511719 374.490875,228.970779 373.280243,237.362976 
	C390.425507,243.654297 407.570190,249.945404 424.714905,256.236511 
	C424.776428,256.777954 424.837921,257.319366 424.899445,257.860779 
	C409.599670,262.849213 394.299866,267.837646 379.000061,272.826050 
	C380.640564,271.539001 382.281067,270.251984 384.490173,268.518890 
	C383.206299,268.001343 381.934967,267.488861 380.294128,266.959351 
	C389.812134,263.578583 399.699677,260.214844 410.367310,256.585693 
	C400.247070,252.863953 390.915710,249.405426 381.563019,246.005554 
	C377.602020,244.565643 373.542603,243.380463 369.645203,241.791779 
	C368.554108,241.347015 367.029968,239.767410 367.143799,238.896515 
	C368.619324,227.608673 370.354858,216.354813 372.129669,204.384827 
	C375.904755,206.031265 379.120087,207.433578 382.667175,209.002960 
z"/>
<path fill="#99D838" opacity="1.000000" stroke="none" 
	d="
M95.977425,221.177628 
	C96.772522,220.849884 97.567627,220.522125 98.931648,220.393723 
	C100.328705,220.719452 101.156830,220.845810 101.995071,221.231934 
	C102.010727,221.664886 102.016266,221.838104 101.790054,222.274567 
	C95.945312,224.703796 90.273888,226.732666 84.742516,229.090134 
	C81.707718,230.383545 78.909103,232.231140 75.798950,233.905731 
	C75.593903,233.982590 75.162132,234.055893 74.841629,234.072189 
	C74.033867,234.451172 73.546608,234.813858 72.861237,235.480667 
	C71.462219,235.891891 70.261299,235.998993 68.820450,235.860565 
	C62.864491,235.670471 58.060905,237.868774 53.774551,241.903137 
	C53.544727,241.984695 53.072521,242.106827 52.859909,241.859344 
	C51.784565,242.106415 50.921833,242.600983 50.045593,243.060242 
	C50.032078,243.024918 50.107025,243.035004 49.759476,243.213989 
	C48.595211,247.805008 47.523182,252.189560 47.044289,256.637939 
	C46.675404,260.064484 47.051922,263.571289 47.052807,267.439880 
	C46.409161,270.729401 48.449539,271.206299 50.517262,272.053070 
	C60.726379,276.233856 70.870293,280.573883 81.275421,285.141266 
	C82.728287,285.596466 83.942947,285.768158 85.479233,285.967163 
	C86.536980,286.380402 87.273125,286.766296 88.222626,287.358704 
	C89.005371,287.690979 89.574745,287.816833 90.359299,287.976013 
	C90.574486,288.009399 90.991203,288.135956 91.140167,288.325684 
	C91.532341,288.739258 91.816177,288.882812 92.464378,288.971069 
	C93.530182,289.383789 94.272247,289.771484 95.228546,290.363617 
	C96.011169,290.693970 96.579559,290.819916 97.439896,290.964233 
	C98.168358,291.270569 98.604866,291.558502 99.249435,292.121399 
	C100.340370,292.586212 101.223251,292.776031 102.338699,292.997742 
	C102.571266,293.029663 103.020142,293.167267 103.234009,293.369934 
	C104.014038,293.697571 104.580200,293.822540 105.492203,293.966309 
	C107.221985,294.713776 108.605942,295.442444 110.074799,296.489319 
	C111.103859,297.211548 112.048012,297.615540 112.995026,298.389526 
	C112.995415,299.498596 112.992950,300.237762 112.742363,300.980835 
	C112.494247,300.984741 111.998199,301.000275 111.749977,301.000061 
	C111.501755,300.999878 111.005104,300.997833 110.863647,300.730255 
	C109.793259,300.343964 108.864342,300.225250 107.935417,300.106506 
	C107.935417,300.106506 107.461182,299.984589 107.158676,299.597168 
	C105.545784,298.843628 104.235397,298.477509 102.925003,298.111359 
	C102.925003,298.111359 102.457779,297.994232 102.143524,297.581055 
	C98.604233,292.703461 93.361290,293.339172 88.881866,292.045166 
	C76.129066,287.383606 63.372467,282.732391 50.628067,278.047974 
	C48.956306,277.433472 47.368027,276.594452 45.704548,275.954376 
	C41.943737,274.507324 40.352253,271.919952 40.981667,267.853607 
	C42.380642,258.815552 43.461895,249.720245 45.204716,240.751678 
	C45.483696,239.316040 48.515842,238.415405 50.876671,237.418655 
	C52.638504,237.010788 53.798893,236.451706 54.959282,235.892639 
	C54.959282,235.892639 54.991215,235.967682 55.327221,235.969635 
	C56.768898,235.610199 57.874569,235.248810 58.980236,234.887405 
	C58.980236,234.887405 58.979233,234.961319 59.251411,234.934402 
	C60.006420,234.572769 60.489254,234.238052 60.972084,233.903336 
	C60.972088,233.903336 60.985844,233.979233 61.246620,233.953171 
	C62.005692,233.661011 62.503990,233.394928 63.002289,233.128845 
	C63.002293,233.128845 63.433998,233.007889 64.068008,232.994247 
	C67.108147,231.954346 69.514275,230.928085 71.920403,229.901840 
	C71.920403,229.901840 71.999451,229.949112 72.374084,229.961914 
	C74.478088,229.284561 76.207458,228.594421 77.936836,227.904297 
	C77.936836,227.904297 78.004707,227.974655 78.357170,227.973495 
	C80.459999,227.275269 82.210365,226.578201 83.960732,225.881134 
	C83.960732,225.881119 83.977539,225.956909 84.249207,225.931671 
	C85.005287,225.571167 85.489700,225.235916 85.974113,224.900665 
	C85.974113,224.900665 85.985374,224.974426 86.258072,224.941772 
	C87.006912,224.571564 87.483055,224.234024 87.959198,223.896469 
	C87.959198,223.896469 87.937630,223.982285 88.326118,223.974930 
	C90.802757,223.278336 92.890907,222.589111 94.979057,221.899872 
	C94.979057,221.899872 94.981705,221.972336 95.156738,221.885010 
	C95.603767,221.650116 95.818985,221.443436 95.977425,221.177628 
z"/>
<path fill="#9AD73C" opacity="1.000000" stroke="none" 
	d="
M102.021797,222.011292 
	C102.016266,221.838104 102.010727,221.664886 102.117920,220.974136 
	C102.474915,219.940491 102.719177,219.424377 102.963425,218.908264 
	C102.963425,218.908264 102.988976,218.978683 103.260506,218.943695 
	C104.011467,218.572052 104.490891,218.235413 104.970314,217.898758 
	C104.970314,217.898758 104.984467,217.973297 105.241608,217.949921 
	C105.994698,217.662689 106.490654,217.398849 106.986603,217.135010 
	C111.416916,215.437210 115.847221,213.739426 120.771294,212.215363 
	C121.492638,212.222748 121.720215,212.056427 121.947800,211.890106 
	C121.947800,211.890106 121.981369,211.968079 122.358902,211.969177 
	C124.470711,211.286377 126.205002,210.602478 127.939293,209.918579 
	C127.939293,209.918579 128.007462,209.983948 128.313538,209.972656 
	C129.404724,209.602829 130.189819,209.244308 130.974915,208.885788 
	C130.974915,208.885788 130.973282,208.963989 131.147888,208.879456 
	C131.597794,208.648865 131.815918,208.442398 131.976898,208.175552 
	C135.726685,206.911896 139.476471,205.648224 144.208069,204.053696 
	C143.692169,208.283112 143.339783,211.149429 142.993378,214.016479 
	C141.992386,222.300934 141.071426,230.596634 139.903473,238.857452 
	C139.743851,239.986465 138.559753,241.523102 137.508118,241.889343 
	C124.939850,246.266403 112.308426,250.462326 99.686104,254.683441 
	C99.079025,254.886444 98.402908,254.883011 97.242554,254.795227 
	C96.502167,254.788757 96.278168,254.962784 96.054184,255.136841 
	C95.070190,255.840958 94.086197,256.545074 92.785629,257.551392 
	C88.559967,254.618225 95.446320,254.918442 94.147934,252.441269 
	C91.777328,252.562637 89.352051,252.686798 87.109711,252.483780 
	C101.467201,247.648117 115.646866,243.155640 129.812943,238.620636 
	C133.671219,237.385452 135.788040,235.029999 135.070786,230.611938 
	C134.820068,229.067612 135.515656,227.392365 135.590607,225.768188 
	C135.800430,221.221069 135.911880,216.669434 135.861679,211.882736 
	C134.134094,212.468246 132.606964,213.290604 131.042450,214.061798 
	C131.005066,214.010666 131.077728,214.108643 130.667587,214.075897 
	C127.848480,214.242386 124.792572,212.985382 123.748230,216.886475 
	C123.325645,216.922180 123.154808,216.894440 122.729736,216.645325 
	C120.982277,217.226532 119.489059,218.029099 117.766190,218.911469 
	C117.536530,218.991287 117.072388,219.136307 116.862999,218.882843 
	C115.433922,219.362885 114.214233,220.096375 112.743523,220.892487 
	C112.322716,220.924820 112.152916,220.894547 111.709686,220.636856 
	C108.298096,220.943390 105.159943,221.477341 102.021797,222.011292 
z"/>
<path fill="#9AD73E" opacity="1.000000" stroke="none" 
	d="
M184.970581,324.787201 
	C186.015457,323.343384 187.612061,322.030548 187.992401,320.428925 
	C188.830246,316.900696 189.054398,313.226685 189.528976,309.612183 
	C188.976212,309.542358 188.423447,309.472534 187.870667,309.402710 
	C187.126389,311.770325 186.382111,314.137970 185.315887,316.314026 
	C186.580643,302.407349 188.167328,288.692230 189.702286,275.424194 
	C197.753220,274.993011 204.676834,274.940186 211.519302,274.168060 
	C218.647018,273.363739 225.849960,272.408234 232.721863,270.464691 
	C236.766479,269.320801 240.231201,266.126617 243.977341,264.201111 
	C244.890610,264.960724 245.860428,265.819427 246.657623,265.681335 
	C247.820053,265.480042 248.858353,264.561981 250.153046,264.114929 
	C250.502335,264.376801 250.648148,264.473236 250.793976,264.569702 
	C241.486542,275.293823 229.088013,279.098053 215.538788,279.931641 
	C208.931778,280.338135 202.279083,280.002014 195.326797,280.002014 
	C193.297485,294.874237 191.299561,309.516296 188.692352,324.525696 
	C187.045578,324.857788 186.008072,324.822479 184.970581,324.787201 
M204.567032,278.006378 
	C209.457047,278.006378 214.347076,278.006378 219.237091,278.006378 
	C219.208786,277.355133 219.180481,276.703918 219.152161,276.052673 
	C211.098114,276.052673 203.041824,275.963074 194.992722,276.162781 
	C193.952042,276.188599 192.948486,277.710876 191.420914,278.951660 
	C196.257141,278.576447 199.928223,278.291595 204.567032,278.006378 
z"/>
<path fill="#9AD73E" opacity="1.000000" stroke="none" 
	d="
M251.926620,203.104309 
	C253.211472,203.549728 255.417160,203.723846 255.640518,204.482010 
	C258.234619,213.286880 261.664032,221.867935 259.216095,231.550278 
	C257.012512,240.266113 256.343445,249.386749 251.250076,257.197601 
	C251.094452,257.436279 251.514206,258.050171 252.212036,260.072235 
	C254.118103,256.368164 255.906204,253.859024 256.737091,251.065201 
	C258.190063,246.179779 258.985626,241.102417 260.204315,236.141754 
	C260.621460,234.443817 261.481384,232.854660 262.484924,231.107452 
	C262.290009,243.199554 259.022278,254.451965 251.048538,264.363220 
	C250.648148,264.473236 250.502335,264.376801 250.211914,263.784576 
	C250.165222,262.301483 250.263138,261.314178 250.402679,259.907379 
	C248.163742,261.147949 246.522583,262.057312 244.933136,262.610046 
	C249.840515,255.916229 254.011963,249.232651 255.380646,241.184830 
	C256.036011,237.331345 256.297974,233.390961 257.216858,229.606186 
	C259.574677,219.894577 256.796112,211.316345 251.926620,203.104309 
z"/>
<path fill="#99D838" opacity="1.000000" stroke="none" 
	d="
M121.126022,267.951569 
	C124.979485,269.387146 128.832947,270.822723 132.692001,272.910034 
	C132.206116,275.072357 131.384201,276.561035 131.282516,278.097412 
	C130.914871,283.651978 130.716553,289.221039 130.601242,294.787689 
	C130.537842,297.849030 130.767929,300.916504 130.865677,303.981201 
	C130.895004,304.152496 130.924347,304.323822 130.543335,304.804932 
	C128.756317,305.409393 127.379684,305.704102 125.674950,305.845947 
	C121.899719,304.458344 118.452599,303.223572 115.059364,301.676758 
	C115.744949,300.903381 116.376640,300.442017 117.392555,299.986877 
	C118.546196,299.970062 119.315605,299.947021 120.047516,299.948364 
	C120.010017,299.972748 120.046143,299.890900 120.221252,300.144562 
	C120.967384,300.581451 121.538422,300.764648 122.339798,300.986664 
	C122.570137,301.025482 123.015327,301.167114 123.160271,301.347992 
	C123.537994,301.743408 123.808289,301.887665 124.431892,301.971680 
	C125.224060,301.653168 125.700432,301.324615 126.534714,300.872253 
	C127.923080,295.897919 129.146118,291.076660 129.889648,286.182526 
	C130.188934,284.212585 129.436996,282.082886 129.093994,279.639069 
	C129.002945,278.204468 128.981384,277.156738 128.929382,275.816406 
	C128.244980,275.392639 127.591011,275.261444 126.701286,275.061127 
	C126.465538,274.992004 126.002068,274.828827 125.933472,274.480042 
	C122.081375,272.135040 118.297882,270.138824 113.810982,267.771484 
	C115.402298,267.378235 116.262756,267.165619 117.123207,266.952942 
	C117.550095,266.979065 117.976974,267.005188 118.927460,267.299957 
	C120.009384,267.696259 120.567703,267.823914 121.126022,267.951569 
z"/>
<path fill="#99D838" opacity="1.000000" stroke="none" 
	d="
M86.926773,252.810974 
	C89.352051,252.686798 91.777328,252.562637 94.147934,252.441269 
	C95.446320,254.918442 88.559967,254.618225 92.805420,257.896271 
	C93.141792,257.938995 93.574989,258.011292 93.873253,258.420868 
	C97.478340,259.865479 100.785156,260.900482 104.091980,261.935516 
	C104.091980,261.935516 104.020576,261.959717 104.203140,262.175659 
	C104.958649,262.581726 105.531578,262.771881 106.104507,262.962036 
	C106.533813,262.989929 106.963127,263.017853 107.851151,263.290253 
	C108.538681,263.746246 108.804291,263.889496 109.106697,263.964508 
	C110.660080,264.414368 112.213463,264.864227 113.578003,265.789764 
	C110.712654,265.951141 108.004539,265.799530 105.366478,265.287231 
	C100.532120,264.348297 95.739120,263.196350 90.635483,262.071991 
	C89.879997,261.717041 89.417900,261.423401 88.814667,260.814880 
	C86.765572,260.036316 84.857620,259.572632 82.704559,259.049316 
	C82.299911,258.936615 82.140366,258.883484 81.840500,258.652130 
	C81.474838,258.260559 81.211266,258.117737 80.948410,258.031677 
	C80.987358,258.017853 80.939735,258.085419 81.016487,257.753418 
	C82.379761,256.242126 83.666275,255.062866 84.967659,253.922791 
	C84.982529,253.961960 84.906181,253.927383 85.211655,253.913666 
	C85.992950,253.563751 86.468765,253.227539 86.923843,252.875046 
	C86.903099,252.858749 86.926773,252.810974 86.926773,252.810974 
z"/>
<path fill="#9AD73C" opacity="1.000000" stroke="none" 
	d="
M90.928871,262.133270 
	C95.739120,263.196350 100.532120,264.348297 105.366478,265.287231 
	C108.004539,265.799530 110.712654,265.951141 113.746521,266.103821 
	C115.008835,266.070801 115.913788,266.199371 116.970978,266.640442 
	C116.262756,267.165619 115.402298,267.378235 113.810982,267.771484 
	C118.297882,270.138824 122.081375,272.135040 125.554344,274.547821 
	C113.805496,270.687347 102.367180,266.410309 90.928871,262.133270 
z"/>
<path fill="#9AD73E" opacity="1.000000" stroke="none" 
	d="
M165.602951,220.050568 
	C165.006653,228.355072 164.139999,236.860962 163.084808,245.343384 
	C162.526764,249.829422 161.640533,254.274643 160.538208,258.867615 
	C161.867416,246.078705 163.560837,233.160446 165.602951,220.050568 
z"/>
<path fill="#9AD73C" opacity="1.000000" stroke="none" 
	d="
M130.950623,303.575317 
	C130.767929,300.916504 130.537842,297.849030 130.601242,294.787689 
	C130.716553,289.221039 130.914871,283.651978 131.282516,278.097412 
	C131.384201,276.561035 132.206116,275.072357 132.871277,273.230164 
	C133.044968,272.898529 133.527603,273.022705 133.789474,273.360291 
	C134.312164,274.124908 134.572983,274.551971 134.833801,274.979034 
	C133.567719,284.375824 132.301636,293.772614 130.950623,303.575317 
z"/>
<path fill="#B5E26B" opacity="1.000000" stroke="none" 
	d="
M224.909378,187.589325 
	C208.679733,187.970566 192.227081,187.929321 175.775131,188.017502 
	C173.920395,188.027435 172.069565,188.768204 169.823059,189.567627 
	C169.250244,189.973221 169.071320,189.981247 168.892395,189.989273 
	C169.739853,188.992523 170.582443,187.131241 171.435501,187.126419 
	C189.185150,187.026154 206.935989,187.136383 224.909378,187.589325 
z"/>
<path fill="#9AD73D" opacity="1.000000" stroke="none" 
	d="
M375.622559,268.101501 
	C373.891083,269.454010 371.927521,271.170258 369.644165,271.949463 
	C366.066406,273.170410 363.518707,274.514679 363.850983,279.039001 
	C363.987518,280.898315 362.567657,282.871948 361.509216,284.896240 
	C361.474457,281.946777 361.250549,278.696686 362.280487,275.910034 
	C363.004639,273.950531 365.207367,272.220398 367.160767,271.112061 
	C369.638580,269.706177 372.532562,269.033844 375.622559,268.101501 
z"/>
<path fill="#9AD73D" opacity="1.000000" stroke="none" 
	d="
M360.062073,297.432983 
	C360.432434,298.118164 361.075134,299.252197 360.936493,300.280975 
	C360.325592,304.814117 362.050568,306.638245 366.818542,305.873535 
	C364.496277,307.369507 361.935242,308.617950 357.947510,310.561829 
	C358.722443,305.696167 359.348541,301.764801 360.062073,297.432983 
z"/>
<path fill="#9AD73E" opacity="1.000000" stroke="none" 
	d="
M262.938538,228.576385 
	C261.585907,221.236664 260.318542,213.490082 259.063171,205.335815 
	C260.220367,207.620438 261.999084,210.228302 262.371704,213.023621 
	C263.036713,218.012604 262.852753,223.114731 262.938538,228.576385 
z"/>
<path fill="#B5E26B" opacity="1.000000" stroke="none" 
	d="
M184.506088,324.830994 
	C186.008072,324.822479 187.045578,324.857788 188.471344,324.865326 
	C188.464218,325.227112 188.067780,325.957794 187.673599,325.956573 
	C175.538284,325.919128 163.403198,325.809998 151.570419,325.285522 
	C152.593018,324.839569 153.313278,324.820038 154.033524,324.800537 
	C164.036209,324.825256 174.038910,324.850006 184.506088,324.830994 
z"/>
<path fill="#E4FEB7" opacity="1.000000" stroke="none" 
	d="
M260.243164,346.270569 
	C272.168213,345.876099 284.151306,345.931854 296.608765,345.992188 
	C296.587097,346.322693 296.090332,346.934082 295.595123,346.932770 
	C283.830353,346.902039 272.065796,346.805420 260.243164,346.270569 
z"/>
<path fill="#B5E26B" opacity="1.000000" stroke="none" 
	d="
M358.911774,177.626404 
	C347.746490,178.007339 336.343018,178.012390 324.164856,178.034912 
	C322.980713,178.050110 322.571198,178.047852 322.161682,178.045593 
	C322.602264,177.700256 323.043488,177.052734 323.483337,177.053680 
	C335.213501,177.078568 346.943512,177.170212 358.911774,177.626404 
z"/>
<path fill="#9AD73E" opacity="1.000000" stroke="none" 
	d="
M159.968170,260.381470 
	C159.400406,266.274597 158.635056,272.531464 157.521637,278.893188 
	C158.039230,272.913788 158.904892,266.829468 159.968170,260.381470 
z"/>
<path fill="#9BD741" opacity="1.000000" stroke="none" 
	d="
M89.034500,292.374146 
	C93.361290,293.339172 98.604233,292.703461 101.915970,297.502197 
	C97.730820,296.125366 93.458977,294.414215 89.034500,292.374146 
z"/>
<path fill="#9AD73E" opacity="1.000000" stroke="none" 
	d="
M154.021271,324.359589 
	C153.313278,324.820038 152.593018,324.839569 151.513382,324.842041 
	C151.764542,320.826660 152.375092,316.828369 153.071869,312.426300 
	C153.441727,315.987915 153.725372,319.953278 154.021271,324.359589 
z"/>
<path fill="#9BD741" opacity="1.000000" stroke="none" 
	d="
M115.005470,301.988831 
	C118.452599,303.223572 121.899719,304.458344 125.675598,306.152496 
	C126.005280,307.020569 126.006210,307.429291 126.007149,307.837982 
	C121.441010,306.148743 116.874878,304.459503 112.149261,302.165192 
	C111.992592,301.373474 111.995399,301.186859 111.998199,301.000275 
	C111.998199,301.000275 112.494247,300.984741 112.998154,301.100769 
	C114.003204,301.474152 114.504341,301.731476 115.005470,301.988831 
z"/>
<path fill="#9AD73E" opacity="1.000000" stroke="none" 
	d="
M168.545044,190.202515 
	C169.071320,189.981247 169.250244,189.973221 169.696899,189.946869 
	C169.265289,193.543274 168.565933,197.158035 167.517471,200.884567 
	C167.511475,197.469482 167.854599,193.942627 168.545044,190.202515 
z"/>
<path fill="#9AD73C" opacity="1.000000" stroke="none" 
	d="
M103.907043,261.607819 
	C100.785156,260.900482 97.478340,259.865479 94.081039,258.491882 
	C97.234406,259.195587 100.478256,260.237854 103.907043,261.607819 
z"/>
<path fill="#9AD73D" opacity="1.000000" stroke="none" 
	d="
M361.055847,286.432922 
	C361.049103,288.936646 360.965607,291.846436 360.527405,294.877441 
	C360.441498,292.278778 360.710297,289.558899 361.055847,286.432922 
z"/>
<path fill="#9AD73C" opacity="1.000000" stroke="none" 
	d="
M126.371490,307.909668 
	C126.006210,307.429291 126.005280,307.020569 126.003700,306.305328 
	C127.379684,305.704102 128.756317,305.409393 130.482330,305.058411 
	C131.323181,308.547943 130.101044,309.737823 126.371490,307.909668 
z"/>
<path fill="#9BD741" opacity="1.000000" stroke="none" 
	d="
M71.536446,229.933380 
	C69.514275,230.928085 67.108147,231.954346 64.290939,232.970703 
	C66.304062,231.962189 68.728279,230.963547 71.536446,229.933380 
z"/>
<path fill="#9BD741" opacity="1.000000" stroke="none" 
	d="
M127.561844,209.946198 
	C126.205002,210.602478 124.470711,211.286377 122.320419,211.951263 
	C123.664398,211.279434 125.424393,210.626617 127.561844,209.946198 
z"/>
<path fill="#9BD741" opacity="1.000000" stroke="none" 
	d="
M94.585045,221.934433 
	C92.890907,222.589111 90.802757,223.278336 88.315437,223.931992 
	C90.007858,223.253937 92.099442,222.611465 94.585045,221.934433 
z"/>
<path fill="#9BD741" opacity="1.000000" stroke="none" 
	d="
M103.084579,298.415527 
	C104.235397,298.477509 105.545784,298.843628 106.926926,299.518250 
	C105.746506,299.457703 104.495331,299.088684 103.084579,298.415527 
z"/>
<path fill="#9AD73E" opacity="1.000000" stroke="none" 
	d="
M255.083984,198.547302 
	C253.778641,198.132065 252.459335,197.346664 251.092117,196.216614 
	C252.386139,196.640366 253.728088,197.408752 255.083984,198.547302 
z"/>
<path fill="#9BD741" opacity="1.000000" stroke="none" 
	d="
M83.583305,225.921936 
	C82.210365,226.578201 80.459999,227.275269 78.313812,227.951050 
	C79.680626,227.274078 81.443253,226.618423 83.583305,225.921936 
z"/>
<path fill="#9BD741" opacity="1.000000" stroke="none" 
	d="
M77.563675,227.949112 
	C76.207458,228.594421 74.478088,229.284561 72.334442,229.945465 
	C73.676956,229.275467 75.433739,228.634705 77.563675,227.949112 
z"/>
<path fill="#9BD741" opacity="1.000000" stroke="none" 
	d="
M322.087891,178.399994 
	C322.571198,178.047852 322.980713,178.050110 323.697327,178.063965 
	C323.532684,178.997925 323.060974,179.920303 322.250916,180.885635 
	C321.946381,180.203857 321.980255,179.479111 322.087891,178.399994 
z"/>
<path fill="#9AD73E" opacity="1.000000" stroke="none" 
	d="
M231.940430,188.596191 
	C230.311874,188.844864 228.481522,188.738037 226.341705,188.403534 
	C227.934372,188.197449 229.836502,188.219055 231.940430,188.596191 
z"/>
<path fill="#9BD741" opacity="1.000000" stroke="none" 
	d="
M54.599258,235.921753 
	C53.798893,236.451706 52.638504,237.010788 51.247803,237.356888 
	C52.091412,236.746231 53.165325,236.348557 54.599258,235.921753 
z"/>
<path fill="#9BD741" opacity="1.000000" stroke="none" 
	d="
M102.608673,218.948853 
	C102.719177,219.424377 102.474915,219.940491 102.107811,220.714386 
	C101.156830,220.845810 100.328705,220.719452 99.263550,220.381622 
	C100.102325,219.776596 101.178116,219.383011 102.608673,218.948853 
z"/>
<path fill="#9BD741" opacity="1.000000" stroke="none" 
	d="
M108.067955,300.393127 
	C108.864342,300.225250 109.793259,300.343964 110.861649,300.942139 
	C111.001106,301.421570 111.000053,301.845093 111.000046,301.845093 
	C110.066864,301.456665 109.133675,301.068207 108.067955,300.393127 
z"/>
<path fill="#9AD73E" opacity="1.000000" stroke="none" 
	d="
M236.954315,189.612259 
	C235.806091,189.873016 234.475143,189.797363 233.070892,189.444397 
	C234.255585,189.203323 235.513565,189.239594 236.954315,189.612259 
z"/>
<path fill="#9AD73D" opacity="1.000000" stroke="none" 
	d="
M391.971375,211.516785 
	C390.967834,211.773331 389.787201,211.696106 388.323944,211.400421 
	C389.292328,211.182297 390.543304,211.182648 391.971375,211.516785 
z"/>
<path fill="#9BD741" opacity="1.000000" stroke="none" 
	d="
M452.999725,236.998749 
	C452.442108,236.797424 451.884521,236.596085 451.144226,236.153305 
	C451.577606,235.733795 452.193695,235.555725 452.907623,235.919388 
	C453.003540,236.640320 453.001648,236.819534 452.999725,236.998749 
z"/>
<path fill="#9BD741" opacity="1.000000" stroke="none" 
	d="
M58.606640,234.927490 
	C57.874569,235.248810 56.768898,235.610199 55.290192,235.952560 
	C56.022449,235.611557 57.127747,235.289566 58.606640,234.927490 
z"/>
<path fill="#9AD73D" opacity="1.000000" stroke="none" 
	d="
M438.973083,230.613922 
	C438.266724,230.824097 437.405334,230.713654 436.291626,230.392029 
	C436.965576,230.218323 437.891785,230.255798 438.973083,230.613922 
z"/>
<path fill="#9BD741" opacity="1.000000" stroke="none" 
	d="
M130.627380,208.922516 
	C130.189819,209.244308 129.404724,209.602829 128.274796,209.946960 
	C128.713257,209.608124 129.496536,209.283676 130.627380,208.922516 
z"/>
<path fill="#9AD73E" opacity="1.000000" stroke="none" 
	d="
M240.975800,190.629623 
	C240.266159,190.834274 239.397690,190.717407 238.276855,190.384552 
	C238.955322,190.215073 239.886139,190.261581 240.975800,190.629623 
z"/>
<path fill="#9AD73D" opacity="1.000000" stroke="none" 
	d="
M404.946594,217.647064 
	C404.226959,217.782639 403.344757,217.605728 402.245514,217.161987 
	C402.946991,217.041626 403.865479,217.188110 404.946594,217.647064 
z"/>
<path fill="#9AD73D" opacity="1.000000" stroke="none" 
	d="
M420.955200,223.632935 
	C420.256042,223.829773 419.395966,223.712143 418.286285,223.380707 
	C418.955872,223.217438 419.875061,223.267929 420.955200,223.632935 
z"/>
<path fill="#9AD73D" opacity="1.000000" stroke="none" 
	d="
M414.983459,221.666412 
	C414.562531,221.829224 414.008484,221.702026 413.244995,221.376495 
	C413.640472,221.244232 414.245392,221.310318 414.983459,221.666412 
z"/>
<path fill="#9BD741" opacity="1.000000" stroke="none" 
	d="
M60.658508,233.938354 
	C60.489254,234.238052 60.006420,234.572769 59.215614,234.925186 
	C59.386742,234.619720 59.865833,234.296539 60.658508,233.938354 
z"/>
<path fill="#9AD73E" opacity="1.000000" stroke="none" 
	d="
M259.055298,204.720566 
	C258.766479,204.571960 258.446838,204.165909 258.091858,203.364975 
	C258.379181,203.467758 258.701843,203.965439 259.055298,204.720566 
z"/>
<path fill="#9BD741" opacity="1.000000" stroke="none" 
	d="
M104.658661,217.940643 
	C104.490891,218.235413 104.011467,218.572052 103.225807,218.929565 
	C103.395386,218.627808 103.871201,218.305176 104.658661,217.940643 
z"/>
<path fill="#9BD741" opacity="1.000000" stroke="none" 
	d="
M106.678024,217.066101 
	C106.490654,217.398849 105.994698,217.662689 105.207642,217.933029 
	C105.400841,217.625397 105.885139,217.311279 106.678024,217.066101 
z"/>
<path fill="#9AD73E" opacity="1.000000" stroke="none" 
	d="
M256.064392,200.662460 
	C255.775421,200.492538 255.437988,200.012131 255.090332,199.224304 
	C255.392044,199.395264 255.703964,199.873611 256.064392,200.662460 
z"/>
<path fill="#9AD73C" opacity="1.000000" stroke="none" 
	d="
M120.991455,267.659790 
	C120.567703,267.823914 120.009384,267.696259 119.241135,267.367249 
	C119.639763,267.233276 120.248329,267.300629 120.991455,267.659790 
z"/>
<path fill="#9AD73D" opacity="1.000000" stroke="none" 
	d="
M444.971497,233.634094 
	C444.717255,233.774628 444.380127,233.677414 444.022278,233.372253 
	C444.297211,233.241638 444.592896,233.318985 444.971497,233.634094 
z"/>
<path fill="#9BD741" opacity="1.000000" stroke="none" 
	d="
M87.647171,223.932526 
	C87.483055,224.234024 87.006912,224.571564 86.224724,224.925049 
	C86.390831,224.616867 86.862984,224.292740 87.647171,223.932526 
z"/>
<path fill="#99D838" opacity="1.000000" stroke="none" 
	d="
M134.897629,274.677002 
	C134.572983,274.551971 134.312164,274.124908 134.025253,273.440857 
	C134.319931,273.580933 134.640686,273.977966 134.897629,274.677002 
z"/>
<path fill="#9BD741" opacity="1.000000" stroke="none" 
	d="
M62.692062,233.061829 
	C62.503990,233.394928 62.005692,233.661011 61.214611,233.931656 
	C61.408497,233.622406 61.895168,233.308609 62.692062,233.061829 
z"/>
<path fill="#9AD73C" opacity="1.000000" stroke="none" 
	d="
M105.971588,262.672913 
	C105.531578,262.771881 104.958649,262.581726 104.207062,262.138184 
	C104.631836,262.051086 105.235252,262.217468 105.971588,262.672913 
z"/>
<path fill="#9BD741" opacity="1.000000" stroke="none" 
	d="
M85.660721,224.943039 
	C85.489700,225.235916 85.005287,225.571167 84.212257,225.919769 
	C84.384865,225.617218 84.866096,225.301315 85.660721,224.943039 
z"/>
<path fill="#B5E26B" opacity="1.000000" stroke="none" 
	d="
M358.918091,179.777069 
	C358.728363,179.819916 358.604889,179.610397 358.534485,179.384354 
	C358.520752,179.340164 358.713196,179.231781 358.984741,179.075668 
	C359.106934,179.171860 359.054932,179.345383 358.918091,179.777069 
z"/>
<path fill="#9AD73C" opacity="1.000000" stroke="none" 
	d="
M111.235252,301.915588 
	C111.000053,301.845093 111.001106,301.421570 111.003105,301.209717 
	C111.005104,300.997833 111.501755,300.999878 111.749977,301.000061 
	C111.995399,301.186859 111.992592,301.373474 111.966339,301.840118 
	C111.942902,302.120117 111.470451,301.986115 111.235252,301.915588 
z"/>
<path fill="#9AD73D" opacity="1.000000" stroke="none" 
	d="
M456.046448,237.698318 
	C455.820465,237.880081 455.546661,237.732727 455.167969,237.325867 
	C455.335144,237.241196 455.647003,237.342148 456.046448,237.698318 
z"/>
<path fill="#9AD73D" opacity="1.000000" stroke="none" 
	d="
M453.272217,236.996170 
	C453.001648,236.819534 453.003540,236.640320 453.018982,236.191925 
	C453.327911,236.101959 453.623291,236.281174 454.003876,236.713333 
	C453.907623,236.975372 453.726166,236.984467 453.272217,236.996170 
z"/>
<path fill="#9AD73D" opacity="1.000000" stroke="none" 
	d="
M441.027649,231.714325 
	C440.811188,231.886810 440.543060,231.741837 440.170776,231.344788 
	C440.331390,231.264969 440.634552,231.366348 441.027649,231.714325 
z"/>
<path fill="#9AD73D" opacity="1.000000" stroke="none" 
	d="
M402.008484,216.701401 
	C401.789886,216.876694 401.526886,216.734695 401.164764,216.341217 
	C401.326050,216.260223 401.625549,216.358353 402.008484,216.701401 
z"/>
<path fill="#9AD73D" opacity="1.000000" stroke="none" 
	d="
M397.022949,214.712738 
	C396.815521,214.882751 396.547089,214.742584 396.172455,214.351654 
	C396.327087,214.273712 396.625641,214.374268 397.022949,214.712738 
z"/>
<path fill="#9AD73D" opacity="1.000000" stroke="none" 
	d="
M387.035767,210.704819 
	C386.811676,210.882721 386.541779,210.735641 386.169556,210.331772 
	C386.335266,210.249146 386.642883,210.350769 387.035767,210.704819 
z"/>
<path fill="#9BD741" opacity="1.000000" stroke="none" 
	d="
M121.712631,211.944931 
	C121.720215,212.056427 121.492638,212.222748 121.143333,212.274170 
	C121.021606,212.159241 121.477463,211.999756 121.712631,211.944931 
z"/>
<path fill="#9AD73D" opacity="1.000000" stroke="none" 
	d="
M408.039917,218.697464 
	C407.818420,218.878220 407.546967,218.734512 407.172424,218.332458 
	C407.336639,218.248444 407.643494,218.348068 408.039917,218.697464 
z"/>
<path fill="#99D838" opacity="1.000000" stroke="none" 
	d="
M96.286087,255.065781 
	C96.278168,254.962784 96.502167,254.788757 96.851578,254.726257 
	C96.976990,254.837784 96.517998,254.994736 96.286087,255.065781 
z"/>
<path fill="#9BD741" opacity="1.000000" stroke="none" 
	d="
M131.719971,208.150467 
	C131.815918,208.442398 131.597794,208.648865 131.109055,208.874786 
	C131.084747,208.678238 131.273895,208.401810 131.719971,208.150467 
z"/>
<path fill="#9AD73C" opacity="1.000000" stroke="none" 
	d="
M109.018860,263.718048 
	C108.804291,263.889496 108.538681,263.746246 108.166916,263.356781 
	C108.326317,263.276398 108.628670,263.373993 109.018860,263.718048 
z"/>
<path fill="#9AD73D" opacity="1.000000" stroke="none" 
	d="
M423.027679,224.712952 
	C422.809540,224.886444 422.541931,224.741241 422.170959,224.343658 
	C422.332611,224.263199 422.636169,224.364197 423.027679,224.712952 
z"/>
<path fill="#9AD73E" opacity="1.000000" stroke="none" 
	d="
M246.021484,192.720581 
	C245.810211,192.893646 245.539566,192.752426 245.159241,192.362381 
	C245.317245,192.281036 245.621445,192.378632 246.021484,192.720581 
z"/>
<path fill="#9BD741" opacity="1.000000" stroke="none" 
	d="
M95.720726,221.152588 
	C95.818985,221.443436 95.603767,221.650116 95.120865,221.879669 
	C95.094650,221.683624 95.279343,221.405594 95.720726,221.152588 
z"/>
<path fill="#9AD73E" opacity="1.000000" stroke="none" 
	d="
M243.040863,191.706451 
	C242.821976,191.885666 242.544952,191.741089 242.157776,191.339355 
	C242.321365,191.255066 242.633072,191.355240 243.040863,191.706451 
z"/>
<path fill="#9AD73E" opacity="1.000000" stroke="none" 
	d="
M257.112854,201.836365 
	C256.925781,201.877335 256.619568,201.640350 256.172211,201.149536 
	C256.351959,201.116608 256.672821,201.337509 257.112854,201.836365 
z"/>
<path fill="#9AD73D" opacity="1.000000" stroke="none" 
	d="
M379.718811,266.961243 
	C379.861725,267.313690 379.632355,267.473663 379.147003,267.279449 
	C379.027222,267.165619 379.482758,267.009125 379.718811,266.961243 
z"/>
<path fill="#000000" opacity="1.000000" stroke="none" 
	d="
M275.083740,322.294373 
	C278.733124,313.091492 282.511871,304.194794 285.900757,295.152008 
	C290.722473,282.285919 295.279572,269.320312 299.908661,256.382538 
	C303.660156,245.897644 307.224915,235.344162 311.106750,224.908234 
	C314.545837,215.662598 318.337799,206.548737 321.914001,197.353394 
	C323.667114,192.845673 325.283997,188.284958 326.896820,183.373688 
	C326.831116,182.999161 326.977081,182.570129 327.468994,182.294510 
	C335.630310,181.957794 343.299744,181.896698 350.969147,181.835602 
	C348.867737,188.452209 346.997681,195.153152 344.622070,201.669815 
	C337.079407,222.360840 329.412659,243.007339 321.667786,263.623688 
	C316.309570,277.886749 310.658722,292.039825 305.296478,306.301361 
	C301.076385,317.525177 297.097504,328.839722 292.521881,340.541138 
	C284.678192,341.015259 277.324127,341.062225 269.970062,341.109192 
	C269.970062,341.109192 269.633148,340.961060 269.359955,340.645691 
	C269.120728,339.894196 269.154724,339.458099 269.188721,339.022003 
	C270.132141,336.615540 271.075562,334.209045 272.390839,331.238525 
	C273.465057,328.114746 274.167419,325.554993 274.869812,322.995239 
	C274.869781,322.995239 275.039001,322.535309 275.083740,322.294373 
z"/>
<path fill="#9BD741" opacity="1.000000" stroke="none" 
	d="
M350.634827,181.598053 
	C343.299744,181.896698 335.630310,181.957794 327.496887,182.069641 
	C330.696625,181.746292 334.354156,181.163727 338.025848,181.053802 
	C342.110657,180.931519 346.208374,181.239700 350.634827,181.598053 
z"/>
<path fill="#B5E26B" opacity="1.000000" stroke="none" 
	d="
M270.299622,341.366089 
	C277.324127,341.062225 284.678192,341.015259 292.494995,340.916107 
	C285.514862,341.116943 278.071991,341.369965 270.299622,341.366089 
z"/>
<path fill="#9BD741" opacity="1.000000" stroke="none" 
	d="
M274.515564,323.063660 
	C274.167419,325.554993 273.465057,328.114746 272.440369,330.863678 
	C272.799133,328.412598 273.480225,325.772369 274.515564,323.063660 
z"/>
<path fill="#B5E26B" opacity="1.000000" stroke="none" 
	d="
M268.934143,339.161499 
	C269.154724,339.458099 269.120728,339.894196 269.175964,340.648773 
	C269.069946,340.411835 268.874725,339.856445 268.934143,339.161499 
z"/>
<path fill="#000000" opacity="1.000000" stroke="none" 
	d="
M378.649231,272.908203 
	C394.299866,267.837646 409.599670,262.849213 424.899445,257.860779 
	C424.837921,257.319366 424.776428,256.777954 424.714905,256.236511 
	C407.570190,249.945404 390.425507,243.654297 373.280243,237.362976 
	C374.490875,228.970779 375.711121,220.511719 376.970978,211.778290 
	C381.526367,213.697296 385.389893,215.324875 389.627075,216.890106 
	C390.000671,216.827774 390.467804,216.995514 390.887848,217.383240 
	C394.878418,219.121063 398.448975,220.471161 402.243591,221.901947 
	C402.467682,221.982620 402.925354,222.114822 403.115295,222.444290 
	C405.287384,223.412888 407.292358,223.989548 409.246826,224.704376 
	C413.158844,226.135162 417.043213,227.641556 420.938995,229.116745 
	C420.938995,229.116745 420.976410,229.040390 421.027527,229.294861 
	C421.377502,229.653809 421.676331,229.758301 421.975159,229.862793 
	C423.085693,230.233566 424.196198,230.604340 425.891541,231.001556 
	C426.476349,231.028000 426.950928,231.118973 426.950928,231.118973 
	C427.418976,231.413101 427.887024,231.707230 428.824585,232.377411 
	C432.195801,233.778702 435.097534,234.803940 437.999268,235.829163 
	C440.069458,236.456650 442.139648,237.084137 444.688171,238.187653 
	C446.408539,239.132141 447.650574,239.600555 448.892578,240.068970 
	C449.372437,240.381409 449.852264,240.693848 450.797363,241.359955 
	C452.149017,241.852570 453.035400,241.991501 453.921783,242.130432 
	C454.107666,242.399078 454.293579,242.667755 455.018921,243.060699 
	C455.427856,244.456680 455.297302,245.728394 455.166748,247.000092 
	C454.644470,254.314240 456.058533,261.916656 452.043732,268.705597 
	C451.515045,269.599548 450.637604,270.561707 449.705994,270.902313 
	C432.332672,277.253845 414.928131,283.519989 397.526672,289.794434 
	C391.909485,291.819824 386.282318,293.817657 380.060852,295.973145 
	C379.275299,296.395752 379.088654,296.673279 378.902039,296.950806 
	C378.902039,296.950806 378.974884,296.963593 378.568390,296.964081 
	C373.818604,298.260406 369.475281,299.556244 365.131989,300.852112 
	C365.131989,300.852112 365.098877,300.927216 365.081543,300.563782 
	C365.318420,298.800537 365.572632,297.400696 365.826843,296.000885 
	C365.895294,294.949219 365.963715,293.897522 366.418030,292.224121 
	C366.810364,289.402618 366.816833,287.202789 366.823303,285.002991 
	C366.864685,284.833374 366.906067,284.663757 366.979675,283.845734 
	C367.375458,281.154938 367.739014,279.112579 368.102600,277.070190 
	C368.102600,277.070190 368.012268,276.993896 368.376923,276.896667 
	C370.817200,275.821045 372.892853,274.842651 374.968475,273.864258 
	C376.078461,273.572937 377.188446,273.281616 378.649231,272.908203 
z"/>
<path fill="#9AD73D" opacity="1.000000" stroke="none" 
	d="
M420.798157,228.799042 
	C417.043213,227.641556 413.158844,226.135162 409.246826,224.704376 
	C407.292358,223.989548 405.287384,223.412888 403.137146,222.167267 
	C402.978149,221.375565 402.987244,221.190353 402.998169,221.002777 
	C403.000000,221.000412 403.003510,220.996048 403.003510,220.996048 
	C408.888123,223.491150 414.772705,225.986237 420.798157,228.799042 
z"/>
<path fill="#9AD73D" opacity="1.000000" stroke="none" 
	d="
M365.155029,301.181641 
	C369.475281,299.556244 373.818604,298.260406 378.565247,296.927216 
	C374.995636,298.738983 371.041412,300.631409 367.021332,302.371735 
	C366.608459,302.550446 365.801941,301.819824 365.155029,301.181641 
z"/>
<path fill="#9AD73D" opacity="1.000000" stroke="none" 
	d="
M402.019501,221.821274 
	C398.448975,220.471161 394.878418,219.121063 391.125366,217.455078 
	C394.901001,218.188660 398.859100,219.238113 402.910370,220.641815 
	C403.003510,220.996048 403.000000,221.000412 402.803467,221.097321 
	C402.359253,221.354614 402.163452,221.563644 402.019501,221.821274 
z"/>
<path fill="#9AD73D" opacity="1.000000" stroke="none" 
	d="
M437.917358,235.502914 
	C435.097534,234.803940 432.195801,233.778702 429.120544,232.437119 
	C432.937775,230.149506 435.164856,233.308029 437.917358,235.502914 
z"/>
<path fill="#9AD73D" opacity="1.000000" stroke="none" 
	d="
M374.708221,273.641510 
	C372.892853,274.842651 370.817200,275.821045 368.416229,276.940125 
	C368.332733,272.601593 371.500000,273.200500 374.708221,273.641510 
z"/>
<path fill="#9AD73D" opacity="1.000000" stroke="none" 
	d="
M366.475464,285.117767 
	C366.816833,287.202789 366.810364,289.402618 366.466309,291.830994 
	C366.128357,289.783905 366.127991,287.508209 366.475464,285.117767 
z"/>
<path fill="#9AD73D" opacity="1.000000" stroke="none" 
	d="
M367.735352,277.138824 
	C367.739014,279.112579 367.375458,281.154938 366.937073,283.587341 
	C367.030914,281.720703 367.199554,279.464081 367.735352,277.138824 
z"/>
<path fill="#9BD741" opacity="1.000000" stroke="none" 
	d="
M455.501587,246.894897 
	C455.297302,245.728394 455.427856,244.456680 455.270721,243.024811 
	C455.592529,242.682892 456.202057,242.501160 456.811554,242.319427 
	C456.486511,243.809525 456.161469,245.299622 455.501587,246.894897 
z"/>
<path fill="#9BD741" opacity="1.000000" stroke="none" 
	d="
M449.113159,239.836273 
	C447.650574,239.600555 446.408539,239.132141 445.023682,238.354095 
	C446.365173,238.564163 447.849457,239.083878 449.113159,239.836273 
z"/>
<path fill="#9AD73D" opacity="1.000000" stroke="none" 
	d="
M365.495544,296.099884 
	C365.572632,297.400696 365.318420,298.800537 365.122131,300.569641 
	C365.174805,299.358948 365.169525,297.778900 365.495544,296.099884 
z"/>
<path fill="#9BD741" opacity="1.000000" stroke="none" 
	d="
M453.889954,241.803406 
	C453.035400,241.991501 452.149017,241.852570 451.105835,241.411896 
	C451.918762,241.232224 452.888428,241.354309 453.889954,241.803406 
z"/>
<path fill="#9AD73D" opacity="1.000000" stroke="none" 
	d="
M424.424744,227.791138 
	C424.461243,227.769379 424.388245,227.812897 424.424744,227.791138 
z"/>
<path fill="#9AD73D" opacity="1.000000" stroke="none" 
	d="
M421.836914,229.679352 
	C421.676331,229.758301 421.377502,229.653809 420.987244,229.308411 
	C421.204041,229.134186 421.471649,229.277008 421.836914,229.679352 
z"/>
<path fill="#9AD73D" opacity="1.000000" stroke="none" 
	d="
M426.890839,230.960693 
	C426.950928,231.118973 426.476349,231.028000 426.248779,230.947342 
	C426.291046,230.845276 426.560913,230.823853 426.890839,230.960693 
z"/>
<path fill="#9AD73D" opacity="1.000000" stroke="none" 
	d="
M379.116119,296.869263 
	C379.088654,296.673279 379.275299,296.395752 379.719360,296.135559 
	C379.821198,296.425598 379.605682,296.637238 379.116119,296.869263 
z"/>
<path fill="#000000" opacity="1.000000" stroke="none" 
	d="
M251.939667,203.090179 
	C256.796112,211.316345 259.574677,219.894577 257.216858,229.606186 
	C256.297974,233.390961 256.036011,237.331345 255.380646,241.184830 
	C254.011963,249.232651 249.840515,255.916229 244.709930,262.672455 
	C244.151184,263.267853 243.991760,263.522217 243.956726,263.854553 
	C240.231201,266.126617 236.766479,269.320801 232.721863,270.464691 
	C225.849960,272.408234 218.647018,273.363739 211.519302,274.168060 
	C204.676834,274.940186 197.753220,274.993011 189.702286,275.424194 
	C188.167328,288.692230 186.580643,302.407349 185.064545,316.574951 
	C185.135147,317.027374 185.007904,317.446198 184.618195,317.840088 
	C183.766296,318.808411 183.310226,319.877869 182.841049,319.883667 
	C174.591187,319.985382 166.339722,319.957245 158.136276,319.957245 
	C157.998398,317.896088 157.898514,316.403137 157.798645,314.910187 
	C158.858063,306.901672 159.917465,298.893158 160.995132,290.028564 
	C161.617432,285.117340 162.221497,281.062195 162.825562,277.007080 
	C162.866791,276.838074 162.908020,276.669067 162.988068,275.838440 
	C163.627533,271.117584 164.228210,267.058319 164.828888,262.999054 
	C164.868790,262.831573 164.908707,262.664093 164.989990,261.833069 
	C165.630600,256.447784 166.229813,251.726028 166.829025,247.004288 
	C166.877487,246.246933 166.925949,245.489594 166.995392,243.951782 
	C167.621002,239.115768 168.225662,235.060196 168.830307,231.004639 
	C169.555145,224.332306 170.279968,217.659988 171.373825,210.367157 
	C172.104965,206.831558 172.467102,203.916428 172.829224,201.001312 
	C172.870667,200.835037 172.912109,200.668747 172.990448,199.867203 
	C173.336746,197.279526 173.646164,195.327103 174.398056,193.201096 
	C190.889908,192.963287 206.939270,192.899078 223.386124,192.903091 
	C224.855118,192.924042 225.926620,192.876755 226.998138,192.829468 
	C227.166519,192.870712 227.334915,192.911942 228.154282,192.987534 
	C236.226410,194.718307 243.697067,196.284988 249.934845,201.083191 
	C249.934845,201.083191 249.993744,201.007843 250.058563,201.311615 
	C250.725677,202.105347 251.327988,202.595291 251.930283,203.085236 
	C251.930283,203.085236 251.952713,203.076035 251.939667,203.090179 
M195.003632,235.601196 
	C194.602509,239.184311 194.661026,242.898285 193.687439,246.318451 
	C192.380798,250.908630 194.490448,251.967926 198.275589,251.991745 
	C203.428833,252.024185 208.668533,252.593582 213.716858,251.864441 
	C222.546066,250.589249 229.637756,245.217514 229.983627,235.662338 
	C230.067764,233.337967 230.006409,231.008026 229.999405,228.680679 
	C229.981354,222.684235 226.061340,216.798935 220.374252,216.295670 
	C212.696884,215.616257 204.914200,216.126907 197.721359,216.126907 
	C196.755661,222.737595 195.881836,228.719315 195.003632,235.601196 
z"/>
<path fill="#9AD73E" opacity="1.000000" stroke="none" 
	d="
M226.866043,192.460999 
	C225.926620,192.876755 224.855118,192.924042 223.083923,192.613007 
	C220.562805,192.153275 218.741852,191.974030 216.919861,191.962799 
	C202.940964,191.876694 188.961884,191.823257 174.982849,191.759644 
	C176.090607,191.504883 177.197662,191.031921 178.306244,191.028305 
	C193.248444,190.979599 208.190964,190.971115 223.132965,191.044052 
	C224.334976,191.049927 225.533691,191.727219 226.866043,192.460999 
z"/>
<path fill="#E4FEB7" opacity="1.000000" stroke="none" 
	d="
M174.711670,191.840591 
	C188.961884,191.823257 202.940964,191.876694 216.919861,191.962799 
	C218.741852,191.974030 220.562805,192.153275 222.686447,192.544769 
	C206.939270,192.899078 190.889908,192.963287 174.379425,192.852814 
	C173.904922,192.447327 173.891525,192.216507 173.878143,191.985672 
	C174.065598,191.964294 174.253036,191.942902 174.711670,191.840591 
z"/>
<path fill="#9AD73E" opacity="1.000000" stroke="none" 
	d="
M249.945160,200.702942 
	C243.697067,196.284988 236.226410,194.718307 228.409424,192.937225 
	C234.810547,190.820755 247.778473,195.235687 249.945160,200.702942 
z"/>
<path fill="#E4FEB7" opacity="1.000000" stroke="none" 
	d="
M157.597504,315.260376 
	C157.898514,316.403137 157.998398,317.896088 158.136276,319.957245 
	C166.339722,319.957245 174.591187,319.985382 182.841049,319.883667 
	C183.310226,319.877869 183.766296,318.808411 184.614349,318.058899 
	C185.040207,318.076782 185.080185,318.269714 185.131607,318.981689 
	C185.143066,319.500732 185.173462,319.976227 185.173462,319.976227 
	C182.969452,320.349396 180.770905,321.001099 178.560440,321.044342 
	C171.489197,321.182800 164.413528,321.095764 156.870850,321.095764 
	C157.088821,318.820526 157.242584,317.215546 157.597504,315.260376 
z"/>
<path fill="#9AD73E" opacity="1.000000" stroke="none" 
	d="
M166.477753,247.118195 
	C166.229813,251.726028 165.630600,256.447784 164.944778,261.578857 
	C165.280930,257.069458 165.703705,252.150772 166.477753,247.118195 
z"/>
<path fill="#9AD73E" opacity="1.000000" stroke="none" 
	d="
M168.483032,231.113541 
	C168.225662,235.060196 167.621002,239.115768 166.931320,243.576202 
	C167.276108,239.728210 167.705948,235.475327 168.483032,231.113541 
z"/>
<path fill="#9AD73E" opacity="1.000000" stroke="none" 
	d="
M164.481628,263.109070 
	C164.228210,267.058319 163.627533,271.117584 162.942047,275.581604 
	C163.282944,271.730621 163.708664,267.474854 164.481628,263.109070 
z"/>
<path fill="#9AD73E" opacity="1.000000" stroke="none" 
	d="
M162.475891,277.119934 
	C162.221497,281.062195 161.617432,285.117340 160.930420,289.577698 
	C161.273697,285.732880 161.699966,281.482849 162.475891,277.119934 
z"/>
<path fill="#9AD73E" opacity="1.000000" stroke="none" 
	d="
M172.466705,201.128204 
	C172.467102,203.916428 172.104965,206.831558 171.395447,209.939957 
	C171.400101,207.173859 171.752151,204.214493 172.466705,201.128204 
z"/>
<path fill="#9AD73E" opacity="1.000000" stroke="none" 
	d="
M173.578064,192.191925 
	C173.891525,192.216507 173.904922,192.447327 173.936951,193.026413 
	C173.646164,195.327103 173.336746,197.279526 172.951340,199.613129 
	C173.009567,197.462296 173.143784,194.930237 173.578064,192.191925 
z"/>
<path fill="#9AD73E" opacity="1.000000" stroke="none" 
	d="
M251.896713,202.759018 
	C251.327988,202.595291 250.725677,202.105347 250.018768,201.338135 
	C250.563828,201.518158 251.213486,201.975479 251.896713,202.759018 
z"/>
<path fill="#9AD73E" opacity="1.000000" stroke="none" 
	d="
M185.292480,319.886566 
	C185.173462,319.976227 185.143066,319.500732 185.199478,319.269348 
	C185.536865,319.256500 185.588730,319.509491 185.292480,319.886566 
z"/>
<path fill="#000000" opacity="1.000000" stroke="none" 
	d="
M90.635483,262.071991 
	C102.367180,266.410309 113.805496,270.687347 125.622940,274.896606 
	C126.002068,274.828827 126.465538,274.992004 126.828987,275.340637 
	C127.781570,275.829193 128.370697,275.969086 128.959824,276.108978 
	C128.981384,277.156738 129.002945,278.204468 129.008667,280.045410 
	C128.054153,287.557739 127.115479,294.276917 126.176804,300.996094 
	C125.700432,301.324615 125.224060,301.653168 124.341660,301.722412 
	C123.628860,301.364471 123.322098,301.265778 123.015327,301.167114 
	C123.015327,301.167114 122.570137,301.025482 122.213593,300.695129 
	C121.253410,300.206818 120.649773,300.048859 120.046143,299.890900 
	C120.046143,299.890900 120.010017,299.972748 119.901932,299.631134 
	C118.876251,299.154907 117.958649,299.020264 116.929199,298.614502 
	C116.258240,298.211182 115.699120,298.078979 114.976089,297.615662 
	C113.204742,296.913361 111.597321,296.542236 109.989899,296.171112 
	C108.605942,295.442444 107.221985,294.713776 105.357117,293.668640 
	C104.257507,293.290558 103.638824,293.228912 103.020142,293.167267 
	C103.020142,293.167267 102.571266,293.029663 102.181335,292.681519 
	C100.874733,292.171051 99.958054,292.008759 99.041382,291.846436 
	C98.604866,291.558502 98.168358,291.270569 97.305054,290.665771 
	C96.256943,290.285675 95.635628,290.222443 95.014313,290.159180 
	C94.272247,289.771484 93.530182,289.383789 92.370819,288.712036 
	C91.632751,288.330627 91.311981,288.233307 90.991203,288.135956 
	C90.991203,288.135956 90.574486,288.009399 90.226318,287.675903 
	C89.255188,287.279053 88.632225,287.215637 88.009262,287.152222 
	C87.273125,286.766296 86.536980,286.380402 85.303764,285.627380 
	C83.550194,285.126068 82.293709,284.991913 81.037216,284.857727 
	C70.870293,280.573883 60.726379,276.233856 50.517262,272.053070 
	C48.449539,271.206299 46.409161,270.729401 47.405453,267.203308 
	C48.570534,258.724487 49.338779,250.879745 50.107025,243.035004 
	C50.107025,243.035004 50.032078,243.024918 50.385750,243.015137 
	C51.517120,242.705856 52.294819,242.406342 53.072517,242.106827 
	C53.072521,242.106827 53.544727,241.984695 54.152809,241.968430 
	C59.527393,240.003479 64.293892,238.054779 69.060387,236.106094 
	C70.261299,235.998993 71.462219,235.891891 73.185394,235.433594 
	C74.192490,234.740234 74.677315,234.398071 75.162132,234.055893 
	C75.162132,234.055893 75.593903,233.982590 76.177872,233.966797 
	C80.552513,232.630844 84.371208,231.385361 88.128036,229.975082 
	C96.096817,226.983658 104.033363,223.906372 111.983124,220.864288 
	C112.152916,220.894547 112.322716,220.924820 113.080032,220.864792 
	C114.802490,220.228424 115.937439,219.682358 117.072388,219.136307 
	C117.072388,219.136307 117.536530,218.991287 118.111382,218.881378 
	C120.118813,218.136551 121.551392,217.501617 122.983971,216.866684 
	C123.154808,216.894440 123.325645,216.922180 124.111526,216.953400 
	C126.843620,216.007462 128.960678,215.058060 131.077728,214.108643 
	C131.077728,214.108643 131.005066,214.010666 131.399612,214.031616 
	C133.216812,213.408234 134.639481,212.763901 136.062134,212.119568 
	C135.911880,216.669434 135.800430,221.221069 135.590607,225.768188 
	C135.515656,227.392365 134.820068,229.067612 135.070786,230.611938 
	C135.788040,235.029999 133.671219,237.385452 129.812943,238.620636 
	C115.646866,243.155640 101.467201,247.648117 87.109711,252.483795 
	C86.926773,252.810974 86.903099,252.858749 86.613014,252.914978 
	C85.850677,253.289948 85.378433,253.608658 84.906181,253.927383 
	C84.906181,253.927383 84.982529,253.961960 84.567825,253.959045 
	C81.785522,254.503433 79.417923,255.050751 77.050331,255.598068 
	C77.062607,256.080994 77.074890,256.563904 77.087173,257.046814 
	C78.371361,257.393005 79.655548,257.739227 80.939735,258.085419 
	C80.939735,258.085419 80.987358,258.017853 81.034073,258.276367 
	C81.380798,258.633362 81.680809,258.731842 81.980812,258.830322 
	C82.140366,258.883484 82.299911,258.936615 82.885612,259.368958 
	C85.193108,260.208710 87.074455,260.669220 88.955803,261.129730 
	C89.417900,261.423401 89.879997,261.717041 90.635483,262.071991 
z"/>
<path fill="#9BD741" opacity="1.000000" stroke="none" 
	d="
M111.709686,220.636856 
	C104.033363,223.906372 96.096817,226.983658 88.128036,229.975082 
	C84.371208,231.385361 80.552513,232.630844 76.382919,233.889923 
	C78.909103,232.231140 81.707718,230.383545 84.742516,229.090134 
	C90.273888,226.732666 95.945312,224.703796 101.790054,222.274567 
	C105.159943,221.477341 108.298096,220.943390 111.709686,220.636856 
z"/>
<path fill="#9BD741" opacity="1.000000" stroke="none" 
	d="
M49.759476,243.213989 
	C49.338779,250.879745 48.570534,258.724487 47.449642,266.805786 
	C47.051922,263.571289 46.675404,260.064484 47.044289,256.637939 
	C47.523182,252.189560 48.595211,247.805008 49.759476,243.213989 
z"/>
<path fill="#9BD741" opacity="1.000000" stroke="none" 
	d="
M68.820450,235.860565 
	C64.293892,238.054779 59.527393,240.003479 54.382637,241.886871 
	C58.060905,237.868774 62.864491,235.670471 68.820450,235.860565 
z"/>
<path fill="#9AD73C" opacity="1.000000" stroke="none" 
	d="
M115.139999,297.946777 
	C115.699120,298.078979 116.258240,298.211182 116.916481,298.888184 
	C117.013176,299.615540 117.010750,299.798096 117.008331,299.980652 
	C116.376640,300.442017 115.744949,300.903381 115.059364,301.676758 
	C114.504341,301.731476 114.003204,301.474152 113.246277,301.096863 
	C112.992950,300.237762 112.995415,299.498596 113.353210,298.380249 
	C114.185684,297.982941 114.662849,297.964844 115.139999,297.946777 
z"/>
<path fill="#9BD741" opacity="1.000000" stroke="none" 
	d="
M114.976089,297.615601 
	C114.662849,297.964844 114.185684,297.982941 113.350342,298.010284 
	C112.048012,297.615540 111.103859,297.211548 110.074799,296.489319 
	C111.597321,296.542236 113.204742,296.913361 114.976089,297.615601 
z"/>
<path fill="#9BD741" opacity="1.000000" stroke="none" 
	d="
M52.859905,241.859344 
	C52.294819,242.406342 51.517120,242.705856 50.399261,243.050461 
	C50.921833,242.600983 51.784565,242.106415 52.859905,241.859344 
z"/>
<path fill="#9BD741" opacity="1.000000" stroke="none" 
	d="
M81.275421,285.141235 
	C82.293709,284.991913 83.550194,285.126068 84.982147,285.600067 
	C83.942947,285.768158 82.728287,285.596466 81.275421,285.141235 
z"/>
<path fill="#9BD741" opacity="1.000000" stroke="none" 
	d="
M99.249435,292.121399 
	C99.958054,292.008759 100.874733,292.171051 101.948776,292.649597 
	C101.223251,292.776031 100.340370,292.586212 99.249435,292.121399 
z"/>
<path fill="#9BD741" opacity="1.000000" stroke="none" 
	d="
M88.222626,287.358704 
	C88.632225,287.215637 89.255188,287.279053 90.011139,287.642548 
	C89.574745,287.816833 89.005371,287.690979 88.222626,287.358704 
z"/>
<path fill="#9BD741" opacity="1.000000" stroke="none" 
	d="
M95.228546,290.363617 
	C95.635628,290.222443 96.256943,290.285675 97.013107,290.647400 
	C96.579559,290.819916 96.011169,290.693970 95.228546,290.363617 
z"/>
<path fill="#9BD741" opacity="1.000000" stroke="none" 
	d="
M103.234009,293.369934 
	C103.638824,293.228912 104.257507,293.290558 105.011276,293.649841 
	C104.580200,293.822540 104.014038,293.697571 103.234009,293.369934 
z"/>
<path fill="#9BD741" opacity="1.000000" stroke="none" 
	d="
M74.841629,234.072189 
	C74.677315,234.398071 74.192490,234.740234 73.383507,235.129471 
	C73.546608,234.813858 74.033867,234.451172 74.841629,234.072189 
z"/>
<path fill="#9BD741" opacity="1.000000" stroke="none" 
	d="
M91.140167,288.325684 
	C91.311981,288.233307 91.632751,288.330627 92.047089,288.687012 
	C91.816177,288.882812 91.532341,288.739258 91.140167,288.325684 
z"/>
<path fill="#9BD741" opacity="1.000000" stroke="none" 
	d="
M130.667587,214.075897 
	C128.960678,215.058060 126.843620,216.007462 124.363281,216.889954 
	C124.792572,212.985382 127.848480,214.242386 130.667587,214.075897 
z"/>
<path fill="#9BD741" opacity="1.000000" stroke="none" 
	d="
M135.861664,211.882736 
	C134.639481,212.763901 133.216812,213.408234 131.437012,214.082764 
	C132.606964,213.290604 134.134094,212.468246 135.861664,211.882736 
z"/>
<path fill="#9BD741" opacity="1.000000" stroke="none" 
	d="
M122.729736,216.645325 
	C121.551392,217.501617 120.118813,218.136551 118.341034,218.801575 
	C119.489059,218.029099 120.982277,217.226532 122.729736,216.645325 
z"/>
<path fill="#9BD741" opacity="1.000000" stroke="none" 
	d="
M116.862999,218.882843 
	C115.937439,219.682358 114.802490,220.228424 113.331039,220.802185 
	C114.214233,220.096375 115.433922,219.362885 116.862999,218.882843 
z"/>
<path fill="#97D836" opacity="1.000000" stroke="none" 
	d="
M204.083160,278.006592 
	C199.928223,278.291595 196.257141,278.576447 191.420914,278.951660 
	C192.948486,277.710876 193.952042,276.188599 194.992722,276.162781 
	C203.041824,275.963074 211.098114,276.052673 219.152161,276.052673 
	C219.180481,276.703918 219.208786,277.355133 219.237091,278.006378 
	C214.347076,278.006378 209.457047,278.006378 204.083160,278.006592 
z"/>
<path fill="#97D836" opacity="1.000000" stroke="none" 
	d="
M243.977341,264.201111 
	C243.991760,263.522217 244.151184,263.267853 244.658203,263.029053 
	C246.522583,262.057312 248.163742,261.147949 250.402679,259.907379 
	C250.263138,261.314178 250.165222,262.301483 250.008438,263.619141 
	C248.858353,264.561981 247.820053,265.480042 246.657623,265.681335 
	C245.860428,265.819427 244.890610,264.960724 243.977341,264.201111 
z"/>
<path fill="#9AD73C" opacity="1.000000" stroke="none" 
	d="
M126.534714,300.872253 
	C127.115479,294.276917 128.054153,287.557739 129.078156,280.432251 
	C129.436996,282.082886 130.188934,284.212585 129.889648,286.182526 
	C129.146118,291.076660 127.923080,295.897919 126.534714,300.872253 
z"/>
<path fill="#9AD73C" opacity="1.000000" stroke="none" 
	d="
M128.929382,275.816406 
	C128.370697,275.969086 127.781570,275.829193 127.064735,275.409790 
	C127.591011,275.261444 128.244980,275.392639 128.929382,275.816406 
z"/>
<path fill="#9BD741" opacity="1.000000" stroke="none" 
	d="
M117.392548,299.986877 
	C117.010750,299.798096 117.013176,299.615540 117.028328,299.159302 
	C117.958649,299.020264 118.876251,299.154907 119.939438,299.606750 
	C119.315605,299.947021 118.546196,299.970062 117.392548,299.986877 
z"/>
<path fill="#9AD73C" opacity="1.000000" stroke="none" 
	d="
M120.221252,300.144562 
	C120.649773,300.048859 121.253410,300.206818 121.983246,300.656311 
	C121.538422,300.764648 120.967384,300.581451 120.221252,300.144562 
z"/>
<path fill="#9AD73C" opacity="1.000000" stroke="none" 
	d="
M123.160271,301.347992 
	C123.322098,301.265778 123.628860,301.364471 124.025864,301.712402 
	C123.808289,301.887665 123.537994,301.743408 123.160271,301.347992 
z"/>
<path fill="#9AD73C" opacity="1.000000" stroke="none" 
	d="
M81.016487,257.753418 
	C79.655548,257.739227 78.371361,257.393005 77.087173,257.046814 
	C77.074890,256.563904 77.062607,256.080994 77.050331,255.598068 
	C79.417923,255.050751 81.785522,254.503433 84.552948,253.919861 
	C83.666275,255.062866 82.379761,256.242126 81.016487,257.753418 
z"/>
<path fill="#9AD73C" opacity="1.000000" stroke="none" 
	d="
M88.814667,260.814880 
	C87.074455,260.669220 85.193108,260.208710 83.130722,259.428558 
	C84.857620,259.572632 86.765572,260.036316 88.814667,260.814880 
z"/>
<path fill="#9AD73C" opacity="1.000000" stroke="none" 
	d="
M85.211655,253.913666 
	C85.378433,253.608658 85.850677,253.289948 86.633759,252.931274 
	C86.468765,253.227539 85.992950,253.563751 85.211655,253.913666 
z"/>
<path fill="#9AD73C" opacity="1.000000" stroke="none" 
	d="
M81.840500,258.652130 
	C81.680809,258.731842 81.380798,258.633362 80.995125,258.290192 
	C81.211266,258.117737 81.474838,258.260559 81.840500,258.652130 
z"/>
<path fill="#9AD73C" opacity="1.000000" stroke="none" 
	d="
M402.243591,221.901947 
	C402.163452,221.563644 402.359253,221.354614 402.801636,221.099670 
	C402.987244,221.190353 402.978149,221.375565 402.947205,221.837799 
	C402.925354,222.114822 402.467682,221.982620 402.243591,221.901947 
z"/>
<path fill="#9AD73C" opacity="1.000000" stroke="none" 
	d="
M195.005829,235.151108 
	C195.881836,228.719315 196.755661,222.737595 197.721359,216.126907 
	C204.914200,216.126907 212.696884,215.616257 220.374252,216.295670 
	C226.061340,216.798935 229.981354,222.684235 229.999405,228.680679 
	C230.006409,231.008026 230.067764,233.337967 229.983627,235.662338 
	C229.637756,245.217514 222.546066,250.589249 213.716858,251.864441 
	C208.668533,252.593582 203.428833,252.024185 198.275589,251.991745 
	C194.490448,251.967926 192.380798,250.908630 193.687439,246.318451 
	C194.661026,242.898285 194.602509,239.184311 195.005829,235.151108 
M223.020081,237.302261 
	C223.084335,236.983795 223.118576,236.655716 223.217194,236.348282 
	C225.809769,228.266205 223.471176,221.711563 217.408493,221.111099 
	C212.697952,220.644577 207.904236,221.017822 203.196243,221.017822 
	C201.950302,229.934250 200.789978,238.237961 199.567154,246.988907 
	C204.242477,246.988907 207.906769,247.325363 211.483902,246.910355 
	C216.903793,246.281509 221.644028,244.326584 223.020081,237.302261 
z"/>
<path fill="#000000" opacity="1.000000" stroke="none" 
	d="
M222.999237,237.721008 
	C221.644028,244.326584 216.903793,246.281509 211.483902,246.910355 
	C207.906769,247.325363 204.242477,246.988907 199.567154,246.988907 
	C200.789978,238.237961 201.950302,229.934250 203.196243,221.017822 
	C207.904236,221.017822 212.697952,220.644577 217.408493,221.111099 
	C223.471176,221.711563 225.809769,228.266205 223.217194,236.348282 
	C223.118576,236.655716 223.084335,236.983795 222.999237,237.721008 
z"/>
</svg>